<svg width="201" height="36" viewBox="0 0 201 36" fill="none" xmlns="http://www.w3.org/2000/svg">
<rect width="201" height="36" rx="10" fill="#72C9DC"/>
<path d="M57.4473 22.18C56.4373 22.18 55.5773 21.955 54.8673 21.505C54.1673 21.055 53.6373 20.425 53.2773 19.615C52.9273 18.805 52.7523 17.86 52.7523 16.78C52.7523 15.7 52.9273 14.755 53.2773 13.945C53.6373 13.135 54.1673 12.505 54.8673 12.055C55.5773 11.605 56.4373 11.38 57.4473 11.38C57.9973 11.38 58.5273 11.45 59.0373 11.59C59.5473 11.72 60.0123 11.915 60.4323 12.175V13.675H60.3723C60.0423 13.355 59.6273 13.1 59.1273 12.91C58.6273 12.71 58.0823 12.61 57.4923 12.61C56.3523 12.61 55.5123 12.98 54.9723 13.72C54.4423 14.46 54.1773 15.48 54.1773 16.78C54.1773 18.09 54.4423 19.115 54.9723 19.855C55.5123 20.595 56.3473 20.965 57.4773 20.965C58.0473 20.965 58.5823 20.87 59.0823 20.68C59.5923 20.49 60.0223 20.225 60.3723 19.885H60.4323V21.385C60.0123 21.645 59.5473 21.845 59.0373 21.985C58.5273 22.115 57.9973 22.18 57.4473 22.18ZM66.8332 22.18C65.6932 22.18 64.8032 21.81 64.1632 21.07C63.5232 20.32 63.2032 19.325 63.2032 18.085C63.2032 16.845 63.5232 15.855 64.1632 15.115C64.8032 14.365 65.6932 13.99 66.8332 13.99C67.9732 13.99 68.8632 14.365 69.5032 15.115C70.1432 15.855 70.4632 16.845 70.4632 18.085C70.4632 19.325 70.1432 20.32 69.5032 21.07C68.8632 21.81 67.9732 22.18 66.8332 22.18ZM66.8332 21.04C67.5632 21.04 68.1132 20.77 68.4832 20.23C68.8532 19.69 69.0382 18.975 69.0382 18.085C69.0382 17.195 68.8532 16.48 68.4832 15.94C68.1132 15.4 67.5632 15.13 66.8332 15.13C66.1032 15.13 65.5532 15.4 65.1832 15.94C64.8232 16.48 64.6432 17.195 64.6432 18.085C64.6432 18.975 64.8232 19.69 65.1832 20.23C65.5532 20.77 66.1032 21.04 66.8332 21.04ZM81.8129 13.99C82.5529 13.99 83.1129 14.22 83.4929 14.68C83.8729 15.13 84.0629 15.76 84.0629 16.57V22H82.7429V16.75C82.7429 16.25 82.6379 15.865 82.4279 15.595C82.2179 15.315 81.8979 15.175 81.4679 15.175C81.0279 15.175 80.6579 15.255 80.3579 15.415C80.0579 15.575 79.7129 15.835 79.3229 16.195C79.3329 16.275 79.3379 16.4 79.3379 16.57V22H78.0179V16.75C78.0179 16.25 77.9129 15.865 77.7029 15.595C77.4929 15.315 77.1729 15.175 76.7429 15.175C76.3029 15.175 75.9329 15.255 75.6329 15.415C75.3329 15.565 74.9929 15.82 74.6129 16.18V22H73.2929V15.91L72.9629 14.17H74.2829L74.4929 15.25C74.9429 14.8 75.3479 14.48 75.7079 14.29C76.0779 14.09 76.5379 13.99 77.0879 13.99C77.6079 13.99 78.0379 14.105 78.3779 14.335C78.7279 14.565 78.9829 14.895 79.1429 15.325C79.6229 14.845 80.0479 14.505 80.4179 14.305C80.7879 14.095 81.2529 13.99 81.8129 13.99ZM90.9844 13.99C91.6644 13.99 92.2444 14.17 92.7244 14.53C93.2044 14.89 93.5644 15.38 93.8044 16C94.0544 16.62 94.1794 17.32 94.1794 18.1C94.1794 18.88 94.0344 19.58 93.7444 20.2C93.4644 20.81 93.0544 21.29 92.5144 21.64C91.9844 21.99 91.3544 22.165 90.6244 22.165C90.2544 22.165 89.9094 22.125 89.5894 22.045C89.2694 21.965 88.9294 21.85 88.5694 21.7V25.48H87.2494V15.91L86.9194 14.17H88.2394L88.4344 15.175C89.1144 14.385 89.9644 13.99 90.9844 13.99ZM90.4894 20.995C91.2094 20.995 91.7644 20.725 92.1544 20.185C92.5544 19.645 92.7544 18.95 92.7544 18.1C92.7544 17.25 92.5994 16.555 92.2894 16.015C91.9894 15.475 91.5144 15.205 90.8644 15.205C90.4044 15.205 89.9894 15.3 89.6194 15.49C89.2594 15.68 88.9094 15.96 88.5694 16.33V20.695C89.2194 20.895 89.8594 20.995 90.4894 20.995ZM96.7691 10.69H98.0891V22H96.7691V10.69ZM107.513 18.52H101.963C102.043 19.29 102.298 19.905 102.728 20.365C103.168 20.815 103.763 21.04 104.513 21.04C104.963 21.04 105.398 20.95 105.818 20.77C106.248 20.58 106.683 20.305 107.123 19.945H107.183V21.265C106.743 21.585 106.308 21.82 105.878 21.97C105.448 22.11 104.988 22.18 104.498 22.18C103.698 22.18 103.003 22.005 102.413 21.655C101.823 21.305 101.368 20.82 101.048 20.2C100.738 19.57 100.583 18.85 100.583 18.04C100.583 17.27 100.723 16.58 101.003 15.97C101.293 15.35 101.703 14.865 102.233 14.515C102.763 14.165 103.383 13.99 104.093 13.99C104.813 13.99 105.428 14.17 105.938 14.53C106.458 14.88 106.848 15.365 107.108 15.985C107.378 16.605 107.513 17.305 107.513 18.085V18.52ZM104.108 15.085C103.488 15.085 102.993 15.31 102.623 15.76C102.253 16.21 102.033 16.79 101.963 17.5H106.148C106.078 16.77 105.873 16.185 105.533 15.745C105.203 15.305 104.728 15.085 104.108 15.085ZM111.722 14.17H113.882V15.31H111.722V19.795C111.722 20.165 111.802 20.465 111.962 20.695C112.132 20.915 112.377 21.025 112.697 21.025C112.917 21.025 113.112 21.005 113.282 20.965C113.462 20.915 113.662 20.84 113.882 20.74V21.91C113.652 22.02 113.432 22.09 113.222 22.12C113.012 22.16 112.757 22.18 112.457 22.18C111.817 22.18 111.312 21.975 110.942 21.565C110.582 21.155 110.402 20.61 110.402 19.93V15.31H108.902V14.17H110.402V12.07L111.722 11.38V14.17ZM122.513 18.52H116.963C117.043 19.29 117.298 19.905 117.728 20.365C118.168 20.815 118.763 21.04 119.513 21.04C119.963 21.04 120.398 20.95 120.818 20.77C121.248 20.58 121.683 20.305 122.123 19.945H122.183V21.265C121.743 21.585 121.308 21.82 120.878 21.97C120.448 22.11 119.988 22.18 119.498 22.18C118.698 22.18 118.003 22.005 117.413 21.655C116.823 21.305 116.368 20.82 116.048 20.2C115.738 19.57 115.583 18.85 115.583 18.04C115.583 17.27 115.723 16.58 116.003 15.97C116.293 15.35 116.703 14.865 117.233 14.515C117.763 14.165 118.383 13.99 119.093 13.99C119.813 13.99 120.428 14.17 120.938 14.53C121.458 14.88 121.848 15.365 122.108 15.985C122.378 16.605 122.513 17.305 122.513 18.085V18.52ZM119.108 15.085C118.488 15.085 117.993 15.31 117.623 15.76C117.253 16.21 117.033 16.79 116.963 17.5H121.148C121.078 16.77 120.873 16.185 120.533 15.745C120.203 15.305 119.728 15.085 119.108 15.085ZM130.562 22L130.367 20.965C130.007 21.365 129.602 21.665 129.152 21.865C128.702 22.065 128.197 22.165 127.637 22.165C126.667 22.165 125.922 21.79 125.402 21.04C124.882 20.29 124.622 19.33 124.622 18.16C124.622 17.36 124.762 16.645 125.042 16.015C125.332 15.385 125.742 14.89 126.272 14.53C126.812 14.17 127.452 13.99 128.192 13.99C128.552 13.99 128.892 14.035 129.212 14.125C129.532 14.205 129.872 14.325 130.232 14.485V10.69H131.552V20.26L131.882 22H130.562ZM127.847 20.95C128.327 20.95 128.752 20.855 129.122 20.665C129.502 20.465 129.872 20.175 130.232 19.795V15.49C129.592 15.27 128.957 15.16 128.327 15.16C127.597 15.16 127.032 15.44 126.632 16C126.242 16.55 126.047 17.26 126.047 18.13C126.047 18.96 126.187 19.64 126.467 20.17C126.757 20.69 127.217 20.95 127.847 20.95ZM140.461 22.66C140.461 22.525 140.446 22.465 140.386 22.465L140.041 22.63C140.041 22.555 139.996 22.51 139.921 22.48L139.801 22.465C139.696 22.465 139.651 22.48 139.501 22.57C139.456 22.48 139.396 22.375 139.351 22.285C138.961 21.535 138.556 20.41 138.376 19.915C138.286 19.66 138.196 19.135 138.091 18.34C138.211 18.415 138.301 18.445 138.346 18.445C138.406 18.445 138.481 18.34 138.541 18.13C138.571 18.175 138.631 18.19 138.706 18.19C138.751 18.19 138.811 18.175 138.841 18.13L139.081 17.77L139.351 17.86H139.366C139.396 17.86 139.441 17.815 139.516 17.77C139.591 17.725 139.651 17.695 139.696 17.695L139.741 17.71C139.981 17.83 140.146 18.04 140.221 18.37C140.401 19.135 140.566 19.51 140.761 19.51C140.926 19.51 141.151 19.315 141.391 18.94C141.631 18.565 141.871 18.055 142.141 17.44C142.156 17.56 142.171 17.62 142.201 17.62C142.291 17.62 142.516 17.095 143.071 16.21C143.896 14.875 145.936 12.31 146.461 11.95C146.851 11.68 147.151 11.425 147.361 11.2C147.331 11.35 147.301 11.455 147.301 11.5C147.301 11.545 147.331 11.56 147.361 11.56L147.781 11.35V11.41C147.781 11.485 147.796 11.53 147.841 11.53C147.901 11.53 148.141 11.29 148.171 11.2L148.141 11.41L148.651 11.11L148.531 11.38C148.681 11.275 148.801 11.215 148.876 11.215C148.951 11.215 148.996 11.335 148.996 11.41C148.996 11.53 148.891 11.695 148.726 11.905C148.546 12.145 148.096 12.61 146.746 14.155C146.161 14.815 143.566 18.34 143.071 19.18L142.141 20.755C141.736 21.43 141.481 21.865 141.346 22.03C141.211 22.195 141.046 22.36 140.851 22.51L140.716 22.435L140.596 22.51L140.461 22.66Z" fill="#30445F"/>
</svg>
