<svg width="176" height="36" viewBox="0 0 176 36" fill="none" xmlns="http://www.w3.org/2000/svg">
<path d="M0 12C0 5.37258 5.37258 0 12 0H126V36H12C5.37258 36 0 30.6274 0 24V12Z" fill="#4E9070"/>
<rect x="1.5" y="1.5" width="173" height="33" rx="10.5" stroke="#30445F" stroke-width="3"/>
<path d="M28.546 10.472V23H26.17V17.492H20.23V23H17.854V10.472H20.23V15.386H26.17V10.472H28.546ZM38.4605 23L38.1185 21.776C37.5065 22.316 36.9665 22.694 36.4985 22.91C36.0425 23.114 35.5205 23.216 34.9325 23.216C34.3685 23.216 33.8525 23.084 33.3845 22.82C32.9285 22.556 32.5685 22.196 32.3045 21.74C32.0525 21.272 31.9265 20.75 31.9265 20.174V13.604H34.3025V18.824C34.3025 19.58 34.4225 20.15 34.6625 20.534C34.9025 20.918 35.2505 21.11 35.7065 21.11C36.0905 21.11 36.4505 21.026 36.7865 20.858C37.1225 20.69 37.4825 20.42 37.8665 20.048V13.604H40.2425V20.912L40.6385 23H38.4605ZM48.6602 13.388C49.6082 13.388 50.3702 13.67 50.9462 14.234C51.5342 14.786 51.8282 15.518 51.8282 16.43V23H49.4522V17.78C49.4522 16.964 49.3262 16.382 49.0742 16.034C48.8342 15.674 48.4322 15.494 47.8682 15.494C47.2442 15.494 46.5842 15.842 45.8882 16.538V23H43.5122V15.692L43.1162 13.604H45.2942L45.6362 14.81C46.1522 14.306 46.6502 13.946 47.1302 13.73C47.6102 13.502 48.1202 13.388 48.6602 13.388ZM63.7198 13.604L63.3238 15.674V23C63.3238 24.428 62.9038 25.514 62.0638 26.258C61.2238 27.014 60.0778 27.392 58.6258 27.392C57.8578 27.392 57.1678 27.29 56.5558 27.086C55.9438 26.882 55.3558 26.606 54.7918 26.258V24.026C55.9198 24.89 57.1318 25.322 58.4278 25.322C60.1078 25.322 60.9478 24.548 60.9478 23V22.262C60.2038 22.67 59.3878 22.874 58.4998 22.874C57.2398 22.874 56.2438 22.46 55.5118 21.632C54.7918 20.792 54.4318 19.64 54.4318 18.176C54.4318 16.688 54.8098 15.518 55.5658 14.666C56.3338 13.814 57.3718 13.388 58.6798 13.388C59.0998 13.388 59.5018 13.436 59.8858 13.532C60.2698 13.616 60.7258 13.766 61.2538 13.982L61.3438 13.604H63.7198ZM58.5898 20.822C59.3458 20.822 60.1318 20.582 60.9478 20.102V15.602C60.6358 15.506 60.3238 15.446 60.0118 15.422C59.7118 15.398 59.3458 15.386 58.9138 15.386C58.2178 15.386 57.7138 15.608 57.4018 16.052C57.0898 16.496 56.9338 17.204 56.9338 18.176C56.9338 19.1 57.0658 19.772 57.3298 20.192C57.5938 20.612 58.0138 20.822 58.5898 20.822ZM74.4859 19.022H67.9519C68.0479 19.742 68.3119 20.294 68.7439 20.678C69.1879 21.062 69.7759 21.254 70.5079 21.254C71.0479 21.254 71.6299 21.158 72.2539 20.966C72.8899 20.762 73.4779 20.486 74.0179 20.138H74.0899V22.064C73.6099 22.436 73.0579 22.724 72.4339 22.928C71.8219 23.12 71.1739 23.216 70.4899 23.216C69.5059 23.216 68.6479 23.018 67.9159 22.622C67.1839 22.226 66.6199 21.656 66.2239 20.912C65.8279 20.168 65.6299 19.298 65.6299 18.302C65.6299 17.33 65.8159 16.472 66.1879 15.728C66.5719 14.984 67.1059 14.408 67.7899 14C68.4739 13.592 69.2659 13.388 70.1659 13.388C71.0419 13.388 71.8039 13.586 72.4519 13.982C73.1119 14.378 73.6159 14.948 73.9639 15.692C74.3119 16.436 74.4859 17.306 74.4859 18.302V19.022ZM70.1659 15.296C69.6019 15.296 69.1279 15.482 68.7439 15.854C68.3719 16.226 68.1199 16.742 67.9879 17.402H72.0379C71.9419 16.718 71.7379 16.196 71.4259 15.836C71.1139 15.476 70.6939 15.296 70.1659 15.296ZM81.9849 13.388V15.728H81.6789C80.7429 15.728 79.9809 15.986 79.3929 16.502V23H77.0169V15.692L76.6209 13.604H78.9969L79.2309 14.846C79.6269 14.306 79.9869 13.928 80.3109 13.712C80.6349 13.496 80.9949 13.388 81.3909 13.388H81.9849Z" fill="#30445F"/>
</svg>
