<svg width="201" height="36" viewBox="0 0 201 36" fill="none" xmlns="http://www.w3.org/2000/svg">
<rect width="201" height="36" rx="10" fill="#BDD4DC"/>
<path d="M55.8738 22H54.5538V12.7L51.1488 22H49.7088L46.2438 12.76V22H44.9238V11.56H47.2338L50.4588 20.155L53.6088 11.56H55.8738V22ZM64.1309 22L63.9209 20.875C63.5309 21.305 63.1059 21.63 62.6459 21.85C62.1959 22.07 61.6859 22.18 61.1159 22.18C60.4059 22.18 59.8309 21.98 59.3909 21.58C58.9509 21.17 58.7309 20.63 58.7309 19.96C58.7309 19.09 59.0809 18.45 59.7809 18.04C60.4809 17.63 61.3809 17.425 62.4809 17.425C62.8809 17.425 63.3209 17.45 63.8009 17.5V16.96C63.8009 16.42 63.6509 15.99 63.3509 15.67C63.0609 15.34 62.6809 15.175 62.2109 15.175C61.6509 15.175 61.1409 15.25 60.6809 15.4C60.2309 15.55 59.7659 15.785 59.2859 16.105V14.83C59.7559 14.52 60.2359 14.305 60.7259 14.185C61.2159 14.055 61.7759 13.99 62.4059 13.99C63.2059 13.99 63.8559 14.245 64.3559 14.755C64.8659 15.265 65.1209 15.94 65.1209 16.78V20.26L65.4509 22H64.1309ZM61.3859 21.07C61.8659 21.07 62.2959 20.97 62.6759 20.77C63.0559 20.57 63.4309 20.28 63.8009 19.9V18.43H62.4209C60.9109 18.43 60.1559 18.915 60.1559 19.885C60.1559 20.245 60.2709 20.535 60.5009 20.755C60.7309 20.965 61.0259 21.07 61.3859 21.07ZM71.887 13.99V15.445H71.662C71.192 15.445 70.767 15.53 70.387 15.7C70.017 15.87 69.707 16.115 69.457 16.435V22H68.137V15.91L67.807 14.17H69.127L69.397 15.565C69.807 14.965 70.152 14.555 70.432 14.335C70.722 14.105 71.052 13.99 71.422 13.99H71.887ZM76.9709 18.34L75.7409 19.72V22H74.4209V10.69H75.7409V17.995L79.1609 14.17H80.7209L77.8559 17.365L80.9009 22H79.2809L76.9709 18.34ZM91.8711 22.18C90.8611 22.18 90.0011 21.955 89.2911 21.505C88.5911 21.055 88.0611 20.425 87.7011 19.615C87.3511 18.805 87.1761 17.86 87.1761 16.78C87.1761 15.7 87.3511 14.755 87.7011 13.945C88.0611 13.135 88.5911 12.505 89.2911 12.055C90.0011 11.605 90.8611 11.38 91.8711 11.38C92.4211 11.38 92.9511 11.45 93.4611 11.59C93.9711 11.72 94.4361 11.915 94.8561 12.175V13.675H94.7961C94.4661 13.355 94.0511 13.1 93.5511 12.91C93.0511 12.71 92.5061 12.61 91.9161 12.61C90.7761 12.61 89.9361 12.98 89.3961 13.72C88.8661 14.46 88.6011 15.48 88.6011 16.78C88.6011 18.09 88.8661 19.115 89.3961 19.855C89.9361 20.595 90.7711 20.965 91.9011 20.965C92.4711 20.965 93.0061 20.87 93.5061 20.68C94.0161 20.49 94.4461 20.225 94.7961 19.885H94.8561V21.385C94.4361 21.645 93.9711 21.845 93.4611 21.985C92.9511 22.115 92.4211 22.18 91.8711 22.18ZM101.257 22.18C100.117 22.18 99.227 21.81 98.587 21.07C97.947 20.32 97.627 19.325 97.627 18.085C97.627 16.845 97.947 15.855 98.587 15.115C99.227 14.365 100.117 13.99 101.257 13.99C102.397 13.99 103.287 14.365 103.927 15.115C104.567 15.855 104.887 16.845 104.887 18.085C104.887 19.325 104.567 20.32 103.927 21.07C103.287 21.81 102.397 22.18 101.257 22.18ZM101.257 21.04C101.987 21.04 102.537 20.77 102.907 20.23C103.277 19.69 103.462 18.975 103.462 18.085C103.462 17.195 103.277 16.48 102.907 15.94C102.537 15.4 101.987 15.13 101.257 15.13C100.527 15.13 99.977 15.4 99.607 15.94C99.247 16.48 99.067 17.195 99.067 18.085C99.067 18.975 99.247 19.69 99.607 20.23C99.977 20.77 100.527 21.04 101.257 21.04ZM116.237 13.99C116.977 13.99 117.537 14.22 117.917 14.68C118.297 15.13 118.487 15.76 118.487 16.57V22H117.167V16.75C117.167 16.25 117.062 15.865 116.852 15.595C116.642 15.315 116.322 15.175 115.892 15.175C115.452 15.175 115.082 15.255 114.782 15.415C114.482 15.575 114.137 15.835 113.747 16.195C113.757 16.275 113.762 16.4 113.762 16.57V22H112.442V16.75C112.442 16.25 112.337 15.865 112.127 15.595C111.917 15.315 111.597 15.175 111.167 15.175C110.727 15.175 110.357 15.255 110.057 15.415C109.757 15.565 109.417 15.82 109.037 16.18V22H107.717V15.91L107.387 14.17H108.707L108.917 15.25C109.367 14.8 109.772 14.48 110.132 14.29C110.502 14.09 110.962 13.99 111.512 13.99C112.032 13.99 112.462 14.105 112.802 14.335C113.152 14.565 113.407 14.895 113.567 15.325C114.047 14.845 114.472 14.505 114.842 14.305C115.212 14.095 115.677 13.99 116.237 13.99ZM125.408 13.99C126.088 13.99 126.668 14.17 127.148 14.53C127.628 14.89 127.988 15.38 128.228 16C128.478 16.62 128.603 17.32 128.603 18.1C128.603 18.88 128.458 19.58 128.168 20.2C127.888 20.81 127.478 21.29 126.938 21.64C126.408 21.99 125.778 22.165 125.048 22.165C124.678 22.165 124.333 22.125 124.013 22.045C123.693 21.965 123.353 21.85 122.993 21.7V25.48H121.673V15.91L121.343 14.17H122.663L122.858 15.175C123.538 14.385 124.388 13.99 125.408 13.99ZM124.913 20.995C125.633 20.995 126.188 20.725 126.578 20.185C126.978 19.645 127.178 18.95 127.178 18.1C127.178 17.25 127.023 16.555 126.713 16.015C126.413 15.475 125.938 15.205 125.288 15.205C124.828 15.205 124.413 15.3 124.043 15.49C123.683 15.68 123.333 15.96 122.993 16.33V20.695C123.643 20.895 124.283 20.995 124.913 20.995ZM131.193 10.69H132.513V22H131.193V10.69ZM141.937 18.52H136.387C136.467 19.29 136.722 19.905 137.152 20.365C137.592 20.815 138.187 21.04 138.937 21.04C139.387 21.04 139.822 20.95 140.242 20.77C140.672 20.58 141.107 20.305 141.547 19.945H141.607V21.265C141.167 21.585 140.732 21.82 140.302 21.97C139.872 22.11 139.412 22.18 138.922 22.18C138.122 22.18 137.427 22.005 136.837 21.655C136.247 21.305 135.792 20.82 135.472 20.2C135.162 19.57 135.007 18.85 135.007 18.04C135.007 17.27 135.147 16.58 135.427 15.97C135.717 15.35 136.127 14.865 136.657 14.515C137.187 14.165 137.807 13.99 138.517 13.99C139.237 13.99 139.852 14.17 140.362 14.53C140.882 14.88 141.272 15.365 141.532 15.985C141.802 16.605 141.937 17.305 141.937 18.085V18.52ZM138.532 15.085C137.912 15.085 137.417 15.31 137.047 15.76C136.677 16.21 136.457 16.79 136.387 17.5H140.572C140.502 16.77 140.297 16.185 139.957 15.745C139.627 15.305 139.152 15.085 138.532 15.085ZM146.146 14.17H148.306V15.31H146.146V19.795C146.146 20.165 146.226 20.465 146.386 20.695C146.556 20.915 146.801 21.025 147.121 21.025C147.341 21.025 147.536 21.005 147.706 20.965C147.886 20.915 148.086 20.84 148.306 20.74V21.91C148.076 22.02 147.856 22.09 147.646 22.12C147.436 22.16 147.181 22.18 146.881 22.18C146.241 22.18 145.736 21.975 145.366 21.565C145.006 21.155 144.826 20.61 144.826 19.93V15.31H143.326V14.17H144.826V12.07L146.146 11.38V14.17ZM156.937 18.52H151.387C151.467 19.29 151.722 19.905 152.152 20.365C152.592 20.815 153.187 21.04 153.937 21.04C154.387 21.04 154.822 20.95 155.242 20.77C155.672 20.58 156.107 20.305 156.547 19.945H156.607V21.265C156.167 21.585 155.732 21.82 155.302 21.97C154.872 22.11 154.412 22.18 153.922 22.18C153.122 22.18 152.427 22.005 151.837 21.655C151.247 21.305 150.792 20.82 150.472 20.2C150.162 19.57 150.007 18.85 150.007 18.04C150.007 17.27 150.147 16.58 150.427 15.97C150.717 15.35 151.127 14.865 151.657 14.515C152.187 14.165 152.807 13.99 153.517 13.99C154.237 13.99 154.852 14.17 155.362 14.53C155.882 14.88 156.272 15.365 156.532 15.985C156.802 16.605 156.937 17.305 156.937 18.085V18.52ZM153.532 15.085C152.912 15.085 152.417 15.31 152.047 15.76C151.677 16.21 151.457 16.79 151.387 17.5H155.572C155.502 16.77 155.297 16.185 154.957 15.745C154.627 15.305 154.152 15.085 153.532 15.085Z" fill="#30445F"/>
</svg>
