<svg width="388" height="854" viewBox="0 0 388 854" fill="none" xmlns="http://www.w3.org/2000/svg">
<rect width="388" height="854" fill="#F1FCFE"/>
<path d="M67.1451 52.6369V66.5569H64.5051V60.4369H57.9051V66.5569H55.2651V52.6369H57.9051V58.0969H64.5051V52.6369H67.1451ZM75.6012 66.7969C74.5478 66.7969 73.6212 66.5769 72.8212 66.1369C72.0212 65.6836 71.4012 65.0436 70.9612 64.2169C70.5345 63.3902 70.3212 62.4302 70.3212 61.3369C70.3212 60.2436 70.5345 59.2836 70.9612 58.4569C71.4012 57.6302 72.0212 56.9969 72.8212 56.5569C73.6212 56.1036 74.5478 55.8769 75.6012 55.8769C76.6545 55.8769 77.5812 56.1036 78.3812 56.5569C79.1812 56.9969 79.7945 57.6302 80.2212 58.4569C80.6612 59.2836 80.8812 60.2436 80.8812 61.3369C80.8812 62.4302 80.6612 63.3902 80.2212 64.2169C79.7945 65.0436 79.1812 65.6836 78.3812 66.1369C77.5812 66.5769 76.6545 66.7969 75.6012 66.7969ZM75.6012 64.6169C76.3878 64.6169 77.0012 64.3369 77.4412 63.7769C77.8812 63.2036 78.1012 62.3902 78.1012 61.3369C78.1012 60.2702 77.8812 59.4569 77.4412 58.8969C77.0012 58.3369 76.3878 58.0569 75.6012 58.0569C74.8145 58.0569 74.2012 58.3369 73.7612 58.8969C73.3212 59.4569 73.1012 60.2702 73.1012 61.3369C73.1012 62.3902 73.3212 63.2036 73.7612 63.7769C74.2012 64.3369 74.8145 64.6169 75.6012 64.6169ZM95.6941 55.8769C96.6941 55.8769 97.4941 56.1902 98.0941 56.8169C98.7075 57.4302 99.0141 58.2436 99.0141 59.2569V66.5569H96.3741V60.7569C96.3741 59.8502 96.2541 59.2036 96.0141 58.8169C95.7741 58.4169 95.3741 58.2169 94.8141 58.2169C94.1341 58.2169 93.4341 58.5969 92.7141 59.3569V66.5569H90.0741V60.7569C90.0741 59.8502 89.9541 59.2036 89.7141 58.8169C89.4741 58.4169 89.0741 58.2169 88.5141 58.2169C87.8341 58.2169 87.1341 58.5969 86.4141 59.3569V66.5569H83.7741V58.4369L83.3341 56.1169H85.7541L86.1341 57.4569C86.6675 56.8969 87.1941 56.4969 87.7141 56.2569C88.2341 56.0036 88.7941 55.8769 89.3941 55.8769C90.0608 55.8769 90.6475 56.0302 91.1541 56.3369C91.6741 56.6302 92.0675 57.0369 92.3341 57.5569C92.8941 56.9569 93.4341 56.5302 93.9541 56.2769C94.4875 56.0102 95.0675 55.8769 95.6941 55.8769ZM111.803 62.1369H104.543C104.649 62.9369 104.943 63.5502 105.423 63.9769C105.916 64.4036 106.569 64.6169 107.383 64.6169C107.983 64.6169 108.629 64.5102 109.323 64.2969C110.029 64.0702 110.683 63.7636 111.283 63.3769H111.363V65.5169C110.829 65.9302 110.216 66.2502 109.523 66.4769C108.843 66.6902 108.123 66.7969 107.363 66.7969C106.269 66.7969 105.316 66.5769 104.503 66.1369C103.689 65.6969 103.063 65.0636 102.623 64.2369C102.183 63.4102 101.963 62.4436 101.963 61.3369C101.963 60.2569 102.169 59.3036 102.583 58.4769C103.009 57.6502 103.603 57.0102 104.363 56.5569C105.123 56.1036 106.003 55.8769 107.003 55.8769C107.976 55.8769 108.823 56.0969 109.543 56.5369C110.276 56.9769 110.836 57.6102 111.223 58.4369C111.609 59.2636 111.803 60.2302 111.803 61.3369V62.1369ZM107.003 57.9969C106.376 57.9969 105.849 58.2036 105.423 58.6169C105.009 59.0302 104.729 59.6036 104.583 60.3369H109.083C108.976 59.5769 108.749 58.9969 108.403 58.5969C108.056 58.1969 107.589 57.9969 107.003 57.9969Z" fill="#30445F"/>
<path d="M55.3627 133.585H59.9627C61.8827 133.585 63.3161 133.978 64.2627 134.765C65.2094 135.538 65.6827 136.665 65.6827 138.145C65.6827 139.638 65.2161 140.798 64.2827 141.625C63.3494 142.451 61.9894 142.865 60.2027 142.865H58.0027V147.505H55.3627V133.585ZM59.9827 140.565C60.9827 140.565 61.7161 140.385 62.1827 140.025C62.6627 139.665 62.9027 139.058 62.9027 138.205C62.9027 137.378 62.6694 136.791 62.2027 136.445C61.7361 136.098 60.9894 135.925 59.9627 135.925H58.0027V140.565H59.9827ZM73.8459 136.825V139.425H73.5059C72.4659 139.425 71.6192 139.711 70.9659 140.285V147.505H68.3259V139.385L67.8859 137.065H70.5259L70.7859 138.445C71.2259 137.845 71.6259 137.425 71.9859 137.185C72.3459 136.945 72.7459 136.825 73.1859 136.825H73.8459ZM80.9137 147.745C79.8603 147.745 78.9337 147.525 78.1337 147.085C77.3337 146.631 76.7137 145.991 76.2737 145.165C75.847 144.338 75.6337 143.378 75.6337 142.285C75.6337 141.191 75.847 140.231 76.2737 139.405C76.7137 138.578 77.3337 137.945 78.1337 137.505C78.9337 137.051 79.8603 136.825 80.9137 136.825C81.967 136.825 82.8937 137.051 83.6937 137.505C84.4937 137.945 85.107 138.578 85.5337 139.405C85.9737 140.231 86.1937 141.191 86.1937 142.285C86.1937 143.378 85.9737 144.338 85.5337 145.165C85.107 145.991 84.4937 146.631 83.6937 147.085C82.8937 147.525 81.967 147.745 80.9137 147.745ZM80.9137 145.565C81.7003 145.565 82.3137 145.285 82.7537 144.725C83.1937 144.151 83.4137 143.338 83.4137 142.285C83.4137 141.218 83.1937 140.405 82.7537 139.845C82.3137 139.285 81.7003 139.005 80.9137 139.005C80.127 139.005 79.5137 139.285 79.0737 139.845C78.6337 140.405 78.4137 141.218 78.4137 142.285C78.4137 143.338 78.6337 144.151 79.0737 144.725C79.5137 145.285 80.127 145.565 80.9137 145.565ZM89.3266 139.025H87.7666V137.065H89.3266V135.865C89.3266 134.625 89.6133 133.705 90.1866 133.105C90.76 132.491 91.5933 132.185 92.6866 132.185C93.1 132.185 93.4533 132.225 93.7466 132.305C94.04 132.385 94.3266 132.505 94.6066 132.665V134.845C94.02 134.538 93.4933 134.385 93.0266 134.385C92.64 134.385 92.3666 134.498 92.2066 134.725C92.0466 134.938 91.9666 135.318 91.9666 135.865V137.065H94.4066V139.025H91.9666V147.505H89.3266V139.025ZM97.3066 135.505C96.8533 135.505 96.4666 135.351 96.1466 135.045C95.8266 134.738 95.6666 134.338 95.6666 133.845C95.6666 133.351 95.8266 132.951 96.1466 132.645C96.4666 132.338 96.8533 132.185 97.3066 132.185C97.76 132.185 98.1466 132.338 98.4666 132.645C98.7866 132.951 98.9466 133.351 98.9466 133.845C98.9466 134.338 98.7866 134.738 98.4666 135.045C98.1466 135.351 97.76 135.505 97.3066 135.505ZM98.6266 137.065V147.505H95.9866V137.085L98.6266 137.065ZM101.58 132.425H104.22V147.505H101.58V132.425ZM116.705 143.085H109.445C109.552 143.885 109.845 144.498 110.325 144.925C110.818 145.351 111.472 145.565 112.285 145.565C112.885 145.565 113.532 145.458 114.225 145.245C114.932 145.018 115.585 144.711 116.185 144.325H116.265V146.465C115.732 146.878 115.118 147.198 114.425 147.425C113.745 147.638 113.025 147.745 112.265 147.745C111.172 147.745 110.218 147.525 109.405 147.085C108.592 146.645 107.965 146.011 107.525 145.185C107.085 144.358 106.865 143.391 106.865 142.285C106.865 141.205 107.072 140.251 107.485 139.425C107.912 138.598 108.505 137.958 109.265 137.505C110.025 137.051 110.905 136.825 111.905 136.825C112.878 136.825 113.725 137.045 114.445 137.485C115.178 137.925 115.738 138.558 116.125 139.385C116.512 140.211 116.705 141.178 116.705 142.285V143.085ZM111.905 138.945C111.278 138.945 110.752 139.151 110.325 139.565C109.912 139.978 109.632 140.551 109.485 141.285H113.985C113.878 140.525 113.652 139.945 113.305 139.545C112.958 139.145 112.492 138.945 111.905 138.945Z" fill="#30445F"/>
<path d="M55.4487 214.533H60.0487C61.9687 214.533 63.402 214.926 64.3487 215.713C65.2953 216.486 65.7687 217.613 65.7687 219.093C65.7687 220.586 65.302 221.746 64.3687 222.573C63.4353 223.399 62.0753 223.813 60.2887 223.813H58.0887V228.453H55.4487V214.533ZM60.0687 221.513C61.0687 221.513 61.802 221.333 62.2687 220.973C62.7487 220.613 62.9887 220.006 62.9887 219.153C62.9887 218.326 62.7553 217.739 62.2887 217.393C61.822 217.046 61.0753 216.873 60.0487 216.873H58.0887V221.513H60.0687ZM74.7518 228.453L74.4918 227.193C73.5451 228.193 72.4051 228.693 71.0718 228.693C70.0185 228.693 69.1585 228.419 68.4918 227.873C67.8385 227.326 67.5118 226.606 67.5118 225.713C67.5118 224.553 67.9385 223.653 68.7918 223.013C69.6585 222.359 70.9051 222.033 72.5318 222.033C73.1185 222.033 73.7051 222.059 74.2918 222.113V221.733C74.2918 221.146 74.1251 220.713 73.7918 220.433C73.4585 220.139 72.9318 219.993 72.2118 219.993C71.5051 219.993 70.8451 220.113 70.2318 220.353C69.6318 220.579 68.9785 220.953 68.2718 221.473V219.113C68.8851 218.646 69.5251 218.306 70.1918 218.093C70.8585 217.879 71.5918 217.773 72.3918 217.773C73.8718 217.773 74.9985 218.093 75.7718 218.733C76.5585 219.359 76.9518 220.279 76.9518 221.493V226.133L77.3918 228.453H74.7518ZM70.1518 225.513C70.1518 226.286 70.5918 226.673 71.4718 226.673C71.9785 226.673 72.4585 226.573 72.9118 226.373C73.3651 226.159 73.8251 225.826 74.2918 225.373V223.953H72.3718C71.5985 223.953 71.0318 224.066 70.6718 224.293C70.3251 224.519 70.1518 224.926 70.1518 225.513ZM83.0134 228.693C82.32 228.693 81.64 228.599 80.9734 228.413C80.3067 228.213 79.68 227.933 79.0934 227.573V225.073C79.7334 225.553 80.34 225.906 80.9134 226.133C81.4867 226.359 82.1067 226.473 82.7734 226.473C83.4534 226.473 83.9534 226.386 84.2734 226.213C84.6067 226.039 84.7734 225.773 84.7734 225.413C84.7734 225.066 84.6134 224.813 84.2934 224.653C83.9867 224.479 83.4934 224.313 82.8134 224.153C82.0667 223.966 81.46 223.779 80.9934 223.593C80.5267 223.393 80.12 223.073 79.7734 222.633C79.44 222.193 79.2734 221.599 79.2734 220.853C79.2734 219.919 79.6534 219.173 80.4134 218.613C81.1867 218.053 82.22 217.773 83.5134 217.773C84.14 217.773 84.72 217.846 85.2534 217.993C85.7867 218.126 86.3334 218.353 86.8934 218.673V221.113C86.32 220.713 85.7867 220.426 85.2934 220.253C84.8 220.079 84.2734 219.993 83.7134 219.993C83.1 219.993 82.6267 220.073 82.2934 220.233C81.96 220.379 81.7934 220.599 81.7934 220.893C81.7934 221.186 81.9334 221.406 82.2134 221.553C82.5067 221.686 82.9667 221.826 83.5934 221.973C84.34 222.133 84.96 222.319 85.4534 222.533C85.96 222.733 86.3934 223.066 86.7534 223.533C87.1134 223.986 87.2934 224.619 87.2934 225.433C87.2934 226.059 87.1134 226.626 86.7534 227.133C86.3934 227.626 85.8867 228.013 85.2334 228.293C84.58 228.559 83.84 228.693 83.0134 228.693ZM92.8934 218.013H95.2934V219.973H92.8934V225.013C92.8934 226.026 93.28 226.533 94.0534 226.533C94.4134 226.533 94.8334 226.406 95.3134 226.153V228.333C94.98 228.453 94.6667 228.539 94.3734 228.593C94.0934 228.659 93.7734 228.693 93.4134 228.693C91.3067 228.693 90.2534 227.466 90.2534 225.013V219.973H88.7334V218.013H90.2534V215.213L92.8934 214.293V218.013ZM106.887 216.953H102.927V214.533H113.487V216.953H109.527V228.453H106.887V216.953ZM121.568 228.453L121.308 227.193C120.362 228.193 119.222 228.693 117.888 228.693C116.835 228.693 115.975 228.419 115.308 227.873C114.655 227.326 114.328 226.606 114.328 225.713C114.328 224.553 114.755 223.653 115.608 223.013C116.475 222.359 117.722 222.033 119.348 222.033C119.935 222.033 120.522 222.059 121.108 222.113V221.733C121.108 221.146 120.942 220.713 120.608 220.433C120.275 220.139 119.748 219.993 119.028 219.993C118.322 219.993 117.662 220.113 117.048 220.353C116.448 220.579 115.795 220.953 115.088 221.473V219.113C115.702 218.646 116.342 218.306 117.008 218.093C117.675 217.879 118.408 217.773 119.208 217.773C120.688 217.773 121.815 218.093 122.588 218.733C123.375 219.359 123.768 220.279 123.768 221.493V226.133L124.208 228.453H121.568ZM116.968 225.513C116.968 226.286 117.408 226.673 118.288 226.673C118.795 226.673 119.275 226.573 119.728 226.373C120.182 226.159 120.642 225.826 121.108 225.373V223.953H119.188C118.415 223.953 117.848 224.066 117.488 224.293C117.142 224.519 116.968 224.926 116.968 225.513ZM129.83 228.693C129.136 228.693 128.456 228.599 127.79 228.413C127.123 228.213 126.496 227.933 125.91 227.573V225.073C126.55 225.553 127.156 225.906 127.73 226.133C128.303 226.359 128.923 226.473 129.59 226.473C130.27 226.473 130.77 226.386 131.09 226.213C131.423 226.039 131.59 225.773 131.59 225.413C131.59 225.066 131.43 224.813 131.11 224.653C130.803 224.479 130.31 224.313 129.63 224.153C128.883 223.966 128.276 223.779 127.81 223.593C127.343 223.393 126.936 223.073 126.59 222.633C126.256 222.193 126.09 221.599 126.09 220.853C126.09 219.919 126.47 219.173 127.23 218.613C128.003 218.053 129.036 217.773 130.33 217.773C130.956 217.773 131.536 217.846 132.07 217.993C132.603 218.126 133.15 218.353 133.71 218.673V221.113C133.136 220.713 132.603 220.426 132.11 220.253C131.616 220.079 131.09 219.993 130.53 219.993C129.916 219.993 129.443 220.073 129.11 220.233C128.776 220.379 128.61 220.599 128.61 220.893C128.61 221.186 128.75 221.406 129.03 221.553C129.323 221.686 129.783 221.826 130.41 221.973C131.156 222.133 131.776 222.319 132.27 222.533C132.776 222.733 133.21 223.066 133.57 223.533C133.93 223.986 134.11 224.619 134.11 225.433C134.11 226.059 133.93 226.626 133.57 227.133C133.21 227.626 132.703 228.013 132.05 228.293C131.396 228.559 130.656 228.693 129.83 228.693ZM140.61 224.073L139.41 225.393V228.453H136.77V213.373H139.41V222.213L143.05 218.013H146.05L142.25 222.233L146.29 228.453H143.27L140.61 224.073ZM151.431 228.693C150.738 228.693 150.058 228.599 149.391 228.413C148.725 228.213 148.098 227.933 147.511 227.573V225.073C148.151 225.553 148.758 225.906 149.331 226.133C149.905 226.359 150.525 226.473 151.191 226.473C151.871 226.473 152.371 226.386 152.691 226.213C153.025 226.039 153.191 225.773 153.191 225.413C153.191 225.066 153.031 224.813 152.711 224.653C152.405 224.479 151.911 224.313 151.231 224.153C150.485 223.966 149.878 223.779 149.411 223.593C148.945 223.393 148.538 223.073 148.191 222.633C147.858 222.193 147.691 221.599 147.691 220.853C147.691 219.919 148.071 219.173 148.831 218.613C149.605 218.053 150.638 217.773 151.931 217.773C152.558 217.773 153.138 217.846 153.671 217.993C154.205 218.126 154.751 218.353 155.311 218.673V221.113C154.738 220.713 154.205 220.426 153.711 220.253C153.218 220.079 152.691 219.993 152.131 219.993C151.518 219.993 151.045 220.073 150.711 220.233C150.378 220.379 150.211 220.599 150.211 220.893C150.211 221.186 150.351 221.406 150.631 221.553C150.925 221.686 151.385 221.826 152.011 221.973C152.758 222.133 153.378 222.319 153.871 222.533C154.378 222.733 154.811 223.066 155.171 223.533C155.531 223.986 155.711 224.619 155.711 225.433C155.711 226.059 155.531 226.626 155.171 227.133C154.811 227.626 154.305 228.013 153.651 228.293C152.998 228.559 152.258 228.693 151.431 228.693Z" fill="#30445F"/>
<path d="M59.5792 309.641C58.8326 309.641 58.0392 309.541 57.1992 309.341C56.3592 309.141 55.5659 308.867 54.8192 308.521V305.961C56.5526 306.894 58.0992 307.361 59.4592 307.361C60.1392 307.361 60.6859 307.214 61.0992 306.921C61.5259 306.627 61.7392 306.214 61.7392 305.681C61.7392 305.307 61.6192 304.994 61.3792 304.741C61.1526 304.474 60.8659 304.261 60.5192 304.101C60.1726 303.927 59.6792 303.721 59.0392 303.481C58.1726 303.161 57.4659 302.854 56.9192 302.561C56.3726 302.267 55.9059 301.854 55.5192 301.321C55.1326 300.774 54.9392 300.074 54.9392 299.221C54.9392 297.967 55.3726 296.994 56.2392 296.301C57.1059 295.594 58.2926 295.241 59.7992 295.241C60.5059 295.241 61.1992 295.321 61.8792 295.481C62.5592 295.627 63.1859 295.847 63.7592 296.141V298.641C62.4126 297.894 61.1126 297.521 59.8592 297.521C59.1659 297.521 58.6192 297.647 58.2192 297.901C57.8326 298.141 57.6392 298.487 57.6392 298.941C57.6392 299.394 57.8392 299.754 58.2392 300.021C58.6526 300.274 59.2859 300.554 60.1392 300.861C61.0326 301.194 61.7659 301.514 62.3392 301.821C62.9126 302.127 63.4059 302.574 63.8192 303.161C64.2459 303.734 64.4726 304.481 64.4992 305.401C64.4992 306.721 64.0526 307.761 63.1592 308.521C62.2659 309.267 61.0726 309.641 59.5792 309.641ZM76.9922 304.981H69.7322C69.8389 305.781 70.1322 306.394 70.6122 306.821C71.1055 307.247 71.7589 307.461 72.5722 307.461C73.1722 307.461 73.8189 307.354 74.5122 307.141C75.2189 306.914 75.8722 306.607 76.4722 306.221H76.5522V308.361C76.0189 308.774 75.4055 309.094 74.7122 309.321C74.0322 309.534 73.3122 309.641 72.5522 309.641C71.4589 309.641 70.5055 309.421 69.6922 308.981C68.8789 308.541 68.2522 307.907 67.8122 307.081C67.3722 306.254 67.1522 305.287 67.1522 304.181C67.1522 303.101 67.3589 302.147 67.7722 301.321C68.1989 300.494 68.7922 299.854 69.5522 299.401C70.3122 298.947 71.1922 298.721 72.1922 298.721C73.1655 298.721 74.0122 298.941 74.7322 299.381C75.4655 299.821 76.0255 300.454 76.4122 301.281C76.7989 302.107 76.9922 303.074 76.9922 304.181V304.981ZM72.1922 300.841C71.5655 300.841 71.0389 301.047 70.6122 301.461C70.1989 301.874 69.9189 302.447 69.7722 303.181H74.2722C74.1655 302.421 73.9389 301.841 73.5922 301.441C73.2455 301.041 72.7789 300.841 72.1922 300.841ZM82.6844 298.961H85.0844V300.921H82.6844V305.961C82.6844 306.974 83.071 307.481 83.8444 307.481C84.2044 307.481 84.6244 307.354 85.1044 307.101V309.281C84.771 309.401 84.4577 309.487 84.1644 309.541C83.8844 309.607 83.5644 309.641 83.2044 309.641C81.0977 309.641 80.0444 308.414 80.0444 305.961V300.921H78.5244V298.961H80.0444V296.161L82.6844 295.241V298.961ZM90.6922 298.961H93.0922V300.921H90.6922V305.961C90.6922 306.974 91.0789 307.481 91.8522 307.481C92.2122 307.481 92.6322 307.354 93.1122 307.101V309.281C92.7789 309.401 92.4655 309.487 92.1722 309.541C91.8922 309.607 91.5722 309.641 91.2122 309.641C89.1055 309.641 88.0522 308.414 88.0522 305.961V300.921H86.5322V298.961H88.0522V296.161L90.6922 295.241V298.961ZM96.8 297.401C96.3467 297.401 95.96 297.247 95.64 296.941C95.32 296.634 95.16 296.234 95.16 295.741C95.16 295.247 95.32 294.847 95.64 294.541C95.96 294.234 96.3467 294.081 96.8 294.081C97.2533 294.081 97.64 294.234 97.96 294.541C98.28 294.847 98.44 295.247 98.44 295.741C98.44 296.234 98.28 296.634 97.96 296.941C97.64 297.247 97.2533 297.401 96.8 297.401ZM98.12 298.961V309.401H95.48V298.981L98.12 298.961ZM107.105 298.721C108.159 298.721 109.005 299.034 109.645 299.661C110.299 300.274 110.625 301.087 110.625 302.101V309.401H107.985V303.601C107.985 302.694 107.845 302.047 107.565 301.661C107.299 301.261 106.852 301.061 106.225 301.061C105.532 301.061 104.799 301.447 104.025 302.221V309.401H101.385V301.281L100.945 298.961H103.365L103.745 300.301C104.319 299.741 104.872 299.341 105.405 299.101C105.939 298.847 106.505 298.721 107.105 298.721ZM123.838 298.961L123.398 301.261V309.401C123.398 310.987 122.932 312.194 121.998 313.021C121.065 313.861 119.792 314.281 118.178 314.281C117.325 314.281 116.558 314.167 115.878 313.941C115.198 313.714 114.545 313.407 113.918 313.021V310.541C115.172 311.501 116.518 311.981 117.958 311.981C119.825 311.981 120.758 311.121 120.758 309.401V308.581C119.932 309.034 119.025 309.261 118.038 309.261C116.638 309.261 115.532 308.801 114.718 307.881C113.918 306.947 113.518 305.667 113.518 304.041C113.518 302.387 113.938 301.087 114.778 300.141C115.632 299.194 116.785 298.721 118.238 298.721C118.705 298.721 119.152 298.774 119.578 298.881C120.005 298.974 120.512 299.141 121.098 299.381L121.198 298.961H123.838ZM118.138 306.981C118.978 306.981 119.852 306.714 120.758 306.181V301.181C120.412 301.074 120.065 301.007 119.718 300.981C119.385 300.954 118.978 300.941 118.498 300.941C117.725 300.941 117.165 301.187 116.818 301.681C116.472 302.174 116.298 302.961 116.298 304.041C116.298 305.067 116.445 305.814 116.738 306.281C117.032 306.747 117.498 306.981 118.138 306.981Z" fill="#30445F"/>
<path d="M55.3647 376.428H58.0047V388.028H63.8647V390.348H55.3647V376.428ZM71.3063 390.588C70.2529 390.588 69.3263 390.368 68.5263 389.928C67.7263 389.475 67.1063 388.835 66.6663 388.008C66.2396 387.182 66.0263 386.222 66.0263 385.128C66.0263 384.035 66.2396 383.075 66.6663 382.248C67.1063 381.422 67.7263 380.788 68.5263 380.348C69.3263 379.895 70.2529 379.668 71.3063 379.668C72.3596 379.668 73.2863 379.895 74.0863 380.348C74.8863 380.788 75.4996 381.422 75.9262 382.248C76.3663 383.075 76.5863 384.035 76.5863 385.128C76.5863 386.222 76.3663 387.182 75.9262 388.008C75.4996 388.835 74.8863 389.475 74.0863 389.928C73.2863 390.368 72.3596 390.588 71.3063 390.588ZM71.3063 388.408C72.0929 388.408 72.7063 388.128 73.1463 387.568C73.5863 386.995 73.8063 386.182 73.8063 385.128C73.8063 384.062 73.5863 383.248 73.1463 382.688C72.7063 382.128 72.0929 381.848 71.3063 381.848C70.5196 381.848 69.9063 382.128 69.4663 382.688C69.0263 383.248 68.8063 384.062 68.8063 385.128C68.8063 386.182 69.0263 386.995 69.4663 387.568C69.9063 388.128 70.5196 388.408 71.3063 388.408ZM89.1392 379.908L88.6992 382.208V390.348C88.6992 391.935 88.2326 393.142 87.2992 393.968C86.3659 394.808 85.0926 395.228 83.4792 395.228C82.6259 395.228 81.8592 395.115 81.1792 394.888C80.4992 394.662 79.8459 394.355 79.2192 393.968V391.488C80.4726 392.448 81.8192 392.928 83.2592 392.928C85.1259 392.928 86.0592 392.068 86.0592 390.348V389.528C85.2326 389.982 84.3259 390.208 83.3392 390.208C81.9392 390.208 80.8326 389.748 80.0192 388.828C79.2192 387.895 78.8192 386.615 78.8192 384.988C78.8192 383.335 79.2392 382.035 80.0792 381.088C80.9326 380.142 82.0859 379.668 83.5392 379.668C84.0059 379.668 84.4526 379.722 84.8792 379.828C85.3059 379.922 85.8126 380.088 86.3992 380.328L86.4992 379.908H89.1392ZM83.4392 387.928C84.2792 387.928 85.1526 387.662 86.0592 387.128V382.128C85.7126 382.022 85.3659 381.955 85.0192 381.928C84.6859 381.902 84.2792 381.888 83.7992 381.888C83.0259 381.888 82.4659 382.135 82.1192 382.628C81.7726 383.122 81.5992 383.908 81.5992 384.988C81.5992 386.015 81.7459 386.762 82.0392 387.228C82.3326 387.695 82.7992 387.928 83.4392 387.928ZM96.5016 390.588C95.4482 390.588 94.5216 390.368 93.7216 389.928C92.9216 389.475 92.3016 388.835 91.8616 388.008C91.4349 387.182 91.2216 386.222 91.2216 385.128C91.2216 384.035 91.4349 383.075 91.8616 382.248C92.3016 381.422 92.9216 380.788 93.7216 380.348C94.5216 379.895 95.4482 379.668 96.5016 379.668C97.5549 379.668 98.4816 379.895 99.2816 380.348C100.082 380.788 100.695 381.422 101.122 382.248C101.562 383.075 101.782 384.035 101.782 385.128C101.782 386.222 101.562 387.182 101.122 388.008C100.695 388.835 100.082 389.475 99.2816 389.928C98.4816 390.368 97.5549 390.588 96.5016 390.588ZM96.5016 388.408C97.2882 388.408 97.9016 388.128 98.3416 387.568C98.7816 386.995 99.0016 386.182 99.0016 385.128C99.0016 384.062 98.7816 383.248 98.3416 382.688C97.9016 382.128 97.2882 381.848 96.5016 381.848C95.7149 381.848 95.1016 382.128 94.6616 382.688C94.2216 383.248 94.0016 384.062 94.0016 385.128C94.0016 386.182 94.2216 386.995 94.6616 387.568C95.1016 388.128 95.7149 388.408 96.5016 388.408ZM111.855 390.348L111.475 388.988C110.795 389.588 110.195 390.008 109.675 390.248C109.168 390.475 108.588 390.588 107.935 390.588C107.308 390.588 106.735 390.442 106.215 390.148C105.708 389.855 105.308 389.455 105.015 388.948C104.735 388.428 104.595 387.848 104.595 387.208V379.908H107.235V385.708C107.235 386.548 107.368 387.182 107.635 387.608C107.901 388.035 108.288 388.248 108.795 388.248C109.221 388.248 109.621 388.155 109.995 387.968C110.368 387.782 110.768 387.482 111.195 387.068V379.908H113.835V388.028L114.275 390.348H111.855ZM120.388 379.908H122.788V381.868H120.388V386.908C120.388 387.922 120.774 388.428 121.548 388.428C121.908 388.428 122.328 388.302 122.808 388.048V390.228C122.474 390.348 122.161 390.435 121.868 390.488C121.588 390.555 121.268 390.588 120.908 390.588C118.801 390.588 117.748 389.362 117.748 386.908V381.868H116.228V379.908H117.748V377.108L120.388 376.188V379.908Z" fill="#30445F"/>
<path d="M28.6 66.782V61.068H32.4V66.782H37.15V59.1634H40L30.5 50.5924L21 59.1634H23.85V66.782H28.6Z" fill="#30445F"/>
<path fill-rule="evenodd" clip-rule="evenodd" d="M28.4444 135.925C28.4444 135.03 28.819 134.173 29.4858 133.54C30.1526 132.907 31.057 132.552 32 132.552C32.943 132.552 33.8474 132.907 34.5142 133.54C35.181 134.173 35.5556 135.03 35.5556 135.925C35.5556 136.819 35.181 137.677 34.5142 138.31C33.8474 138.942 32.943 139.298 32 139.298C31.057 139.298 30.1526 138.942 29.4858 138.31C28.819 137.677 28.4444 136.819 28.4444 135.925ZM28.4444 140.984C27.2657 140.984 26.1352 141.428 25.3017 142.219C24.4683 143.01 24 144.082 24 145.2C24 145.871 24.281 146.515 24.781 146.989C25.2811 147.463 25.9594 147.73 26.6667 147.73H37.3333C38.0406 147.73 38.7189 147.463 39.219 146.989C39.719 146.515 40 145.871 40 145.2C40 144.082 39.5317 143.01 38.6983 142.219C37.8648 141.428 36.7343 140.984 35.5556 140.984H28.4444Z" fill="#30445F"/>
<path d="M39.0792 214.069H35.2023C35.0473 213.609 34.7517 213.208 34.357 212.924C33.9624 212.641 33.4887 212.488 33.0027 212.488C32.5167 212.488 32.043 212.641 31.6483 212.924C31.2537 213.208 30.958 213.609 30.8031 214.069H27.0769C26.9451 214.05 26.8106 214.059 26.6826 214.096C26.5545 214.133 26.4356 214.196 26.3338 214.282C26.2321 214.368 26.1497 214.475 26.0922 214.595C26.0346 214.715 26.0032 214.846 26 214.98V228.779C26.0007 228.9 26.0251 229.018 26.0717 229.129C26.1184 229.24 26.1864 229.341 26.2719 229.425C26.3574 229.51 26.4587 229.577 26.5701 229.622C26.6814 229.667 26.8006 229.69 26.9208 229.69H39.0792C39.1994 229.69 39.3186 229.667 39.4299 229.622C39.5413 229.577 39.6426 229.51 39.7281 229.425C39.8136 229.341 39.8816 229.24 39.9283 229.129C39.9749 229.018 39.9993 228.9 40 228.779V214.98C39.9993 214.859 39.9749 214.74 39.9283 214.63C39.8816 214.519 39.8136 214.418 39.7281 214.334C39.6426 214.249 39.5413 214.182 39.4299 214.137C39.3186 214.092 39.1994 214.069 39.0792 214.069ZM29.3869 215.685C29.3869 215.542 29.4437 215.405 29.5446 215.304C29.6456 215.203 29.7826 215.147 29.9254 215.147H31.7777V214.807C31.7777 214.477 31.909 214.159 32.1428 213.926C32.3766 213.692 32.6936 213.56 33.0242 213.56C33.3548 213.56 33.6719 213.692 33.9057 213.926C34.1394 214.159 34.2708 214.477 34.2708 214.807V215.174H36.1231C36.2659 215.174 36.4028 215.23 36.5038 215.331C36.6048 215.432 36.6615 215.569 36.6615 215.712V216.682H29.3654L29.3869 215.685ZM37.2054 220.657L32.2946 225.569L29.4731 222.747C29.3303 222.604 29.25 222.41 29.25 222.208C29.25 222.006 29.3303 221.812 29.4731 221.669C29.6159 221.527 29.8096 221.446 30.0115 221.446C30.2135 221.446 30.4072 221.527 30.55 221.669L32.3054 223.425L36.15 219.58C36.2928 219.437 36.4865 219.356 36.6885 219.356C36.8904 219.356 37.0841 219.437 37.2269 219.58C37.3697 219.722 37.45 219.916 37.45 220.118C37.45 220.32 37.3697 220.514 37.2269 220.657H37.2054Z" fill="#30445F"/>
<path d="M31.8109 309.626L31.4925 307.197C31.3201 307.134 31.1577 307.058 31.0054 306.969C30.8531 306.881 30.7037 306.786 30.5572 306.685L28.1891 307.634L26 304.029L28.0498 302.549C28.0365 302.46 28.0299 302.375 28.0299 302.293V301.781C28.0299 301.699 28.0365 301.613 28.0498 301.524L26 300.045L28.1891 296.44L30.5572 297.389C30.7032 297.287 30.8557 297.193 31.0149 297.104C31.1741 297.015 31.3333 296.94 31.4925 296.876L31.8109 294.448H36.1891L36.5075 296.876C36.6799 296.94 36.8426 297.015 36.9954 297.104C37.1483 297.193 37.2974 297.287 37.4428 297.389L39.8109 296.44L42 300.045L39.9502 301.524C39.9635 301.613 39.9701 301.699 39.9701 301.781V302.292C39.9701 302.375 39.9569 302.46 39.9303 302.549L41.9801 304.029L39.791 307.634L37.4428 306.685C37.2969 306.786 37.1443 306.881 36.9851 306.969C36.8259 307.058 36.6667 307.134 36.5075 307.197L36.1891 309.626H31.8109ZM34.0398 304.693C34.8093 304.693 35.466 304.434 36.01 303.915C36.5539 303.396 36.8259 302.77 36.8259 302.037C36.8259 301.303 36.5539 300.677 36.01 300.158C35.466 299.64 34.8093 299.381 34.0398 299.381C33.257 299.381 32.5969 299.64 32.0593 300.158C31.5217 300.677 31.2532 301.303 31.2537 302.037C31.2543 302.77 31.5231 303.396 32.0601 303.915C32.5971 304.434 33.257 304.693 34.0398 304.693Z" fill="#30445F"/>
<path d="M27.7778 391.585C27.2889 391.585 26.8705 391.409 26.5227 391.057C26.1748 390.705 26.0006 390.282 26 389.786V377.195C26 376.7 26.1742 376.277 26.5227 375.925C26.8711 375.573 27.2895 375.396 27.7778 375.396H34V377.195H27.7778V389.786H34V391.585H27.7778ZM37.5556 387.988L36.3333 386.683L38.6 384.39H31.3333V382.591H38.6L36.3333 380.298L37.5556 378.993L42 383.491L37.5556 387.988Z" fill="#30445F"/>
</svg>
