<svg width="82" height="37" viewBox="0 0 82 37" fill="none" xmlns="http://www.w3.org/2000/svg">
<rect width="82" height="37" rx="8" fill="#30445F"/>
<path d="M27.4257 13.256C28.8724 13.256 29.9784 13.6853 30.7437 14.544C31.5091 15.4027 31.8917 16.5973 31.8917 18.128C31.8917 19.6587 31.5091 20.8533 30.7437 21.712C29.9784 22.5707 28.8724 23 27.4257 23H24.1357V13.256H27.4257ZM27.5237 21.824C28.5317 21.824 29.2877 21.4973 29.7917 20.844C30.3051 20.1813 30.5617 19.276 30.5617 18.128C30.5617 16.98 30.3051 16.0793 29.7917 15.426C29.2877 14.7633 28.5317 14.432 27.5237 14.432H25.3677V21.824H27.5237ZM37.7896 23.168C36.7256 23.168 35.8949 22.8227 35.2976 22.132C34.7002 21.432 34.4016 20.5033 34.4016 19.346C34.4016 18.1887 34.7002 17.2647 35.2976 16.574C35.8949 15.874 36.7256 15.524 37.7896 15.524C38.8536 15.524 39.6842 15.874 40.2816 16.574C40.8789 17.2647 41.1776 18.1887 41.1776 19.346C41.1776 20.5033 40.8789 21.432 40.2816 22.132C39.6842 22.8227 38.8536 23.168 37.7896 23.168ZM37.7896 22.104C38.4709 22.104 38.9842 21.852 39.3296 21.348C39.6749 20.844 39.8476 20.1767 39.8476 19.346C39.8476 18.5153 39.6749 17.848 39.3296 17.344C38.9842 16.84 38.4709 16.588 37.7896 16.588C37.1082 16.588 36.5949 16.84 36.2496 17.344C35.9136 17.848 35.7456 18.5153 35.7456 19.346C35.7456 20.1767 35.9136 20.844 36.2496 21.348C36.5949 21.852 37.1082 22.104 37.7896 22.104ZM47.5706 15.524C48.2613 15.524 48.784 15.7387 49.1386 16.168C49.4933 16.588 49.6706 17.176 49.6706 17.932V23H48.4386V18.1C48.4386 17.6333 48.3406 17.274 48.1446 17.022C47.9486 16.7607 47.65 16.63 47.2486 16.63C46.7913 16.63 46.404 16.7047 46.0866 16.854C45.7786 17.0033 45.4333 17.246 45.0506 17.582V23H43.8186V17.316L43.5106 15.692H44.7426L44.9386 16.714C45.3773 16.294 45.7833 15.9907 46.1566 15.804C46.5393 15.6173 47.0106 15.524 47.5706 15.524ZM58.6677 19.752H53.4877C53.5624 20.4707 53.8004 21.0447 54.2017 21.474C54.6124 21.894 55.1677 22.104 55.8677 22.104C56.2877 22.104 56.6937 22.02 57.0857 21.852C57.4871 21.6747 57.8931 21.418 58.3037 21.082H58.3597V22.314C57.9491 22.6127 57.5431 22.832 57.1417 22.972C56.7404 23.1027 56.3111 23.168 55.8537 23.168C55.1071 23.168 54.4584 23.0047 53.9077 22.678C53.3571 22.3513 52.9324 21.8987 52.6337 21.32C52.3444 20.732 52.1997 20.06 52.1997 19.304C52.1997 18.5853 52.3304 17.9413 52.5917 17.372C52.8624 16.7933 53.2451 16.3407 53.7397 16.014C54.2344 15.6873 54.8131 15.524 55.4757 15.524C56.1477 15.524 56.7217 15.692 57.1977 16.028C57.6831 16.3547 58.0471 16.8073 58.2897 17.386C58.5417 17.9647 58.6677 18.618 58.6677 19.346V19.752ZM55.4897 16.546C54.9111 16.546 54.4491 16.756 54.1037 17.176C53.7584 17.596 53.5531 18.1373 53.4877 18.8H57.3937C57.3284 18.1187 57.1371 17.5727 56.8197 17.162C56.5117 16.7513 56.0684 16.546 55.4897 16.546Z" fill="white"/>
</svg>
