<svg width="142" height="110" viewBox="0 0 142 110" fill="none" xmlns="http://www.w3.org/2000/svg">
<path d="M27 74H0V100L27 74Z" fill="#D0E8F0"/>
<rect width="142" height="110" rx="15" fill="#D0E8F0"/>
<path d="M16.875 18.56H20.265C22.865 18.56 24.165 19.7 24.165 21.98C24.165 23.13 23.84 24.01 23.19 24.62C22.55 25.22 21.61 25.52 20.37 25.52H18.195V29H16.875V18.56ZM20.325 24.29C21.185 24.29 21.8 24.115 22.17 23.765C22.55 23.415 22.74 22.84 22.74 22.04C22.74 21.24 22.55 20.67 22.17 20.33C21.8 19.99 21.165 19.82 20.265 19.82H18.195V24.29H20.325ZM26.3423 17.69H27.6623V29H26.3423V17.69ZM37.0864 25.52H31.5364C31.6164 26.29 31.8714 26.905 32.3014 27.365C32.7414 27.815 33.3364 28.04 34.0864 28.04C34.5364 28.04 34.9714 27.95 35.3914 27.77C35.8214 27.58 36.2564 27.305 36.6964 26.945H36.7564V28.265C36.3164 28.585 35.8814 28.82 35.4514 28.97C35.0214 29.11 34.5614 29.18 34.0714 29.18C33.2714 29.18 32.5764 29.005 31.9864 28.655C31.3964 28.305 30.9414 27.82 30.6214 27.2C30.3114 26.57 30.1564 25.85 30.1564 25.04C30.1564 24.27 30.2964 23.58 30.5764 22.97C30.8664 22.35 31.2764 21.865 31.8064 21.515C32.3364 21.165 32.9564 20.99 33.6664 20.99C34.3864 20.99 35.0014 21.17 35.5114 21.53C36.0314 21.88 36.4214 22.365 36.6814 22.985C36.9514 23.605 37.0864 24.305 37.0864 25.085V25.52ZM33.6814 22.085C33.0614 22.085 32.5664 22.31 32.1964 22.76C31.8264 23.21 31.6064 23.79 31.5364 24.5H35.7214C35.6514 23.77 35.4464 23.185 35.1064 22.745C34.7764 22.305 34.3014 22.085 33.6814 22.085ZM44.4756 29L44.2656 27.875C43.8756 28.305 43.4506 28.63 42.9906 28.85C42.5406 29.07 42.0306 29.18 41.4606 29.18C40.7506 29.18 40.1756 28.98 39.7356 28.58C39.2956 28.17 39.0756 27.63 39.0756 26.96C39.0756 26.09 39.4256 25.45 40.1256 25.04C40.8256 24.63 41.7256 24.425 42.8256 24.425C43.2256 24.425 43.6656 24.45 44.1456 24.5V23.96C44.1456 23.42 43.9956 22.99 43.6956 22.67C43.4056 22.34 43.0256 22.175 42.5556 22.175C41.9956 22.175 41.4856 22.25 41.0256 22.4C40.5756 22.55 40.1106 22.785 39.6306 23.105V21.83C40.1006 21.52 40.5806 21.305 41.0706 21.185C41.5606 21.055 42.1206 20.99 42.7506 20.99C43.5506 20.99 44.2006 21.245 44.7006 21.755C45.2106 22.265 45.4656 22.94 45.4656 23.78V27.26L45.7956 29H44.4756ZM41.7306 28.07C42.2106 28.07 42.6406 27.97 43.0206 27.77C43.4006 27.57 43.7756 27.28 44.1456 26.9V25.43H42.7656C41.2556 25.43 40.5006 25.915 40.5006 26.885C40.5006 27.245 40.6156 27.535 40.8456 27.755C41.0756 27.965 41.3706 28.07 41.7306 28.07ZM50.4018 29.18C49.9218 29.18 49.4468 29.11 48.9768 28.97C48.5168 28.82 48.0818 28.61 47.6718 28.34V26.96C48.5818 27.66 49.4818 28.01 50.3718 28.01C50.8918 28.01 51.3118 27.905 51.6318 27.695C51.9518 27.475 52.1118 27.185 52.1118 26.825C52.1118 26.575 52.0318 26.37 51.8718 26.21C51.7218 26.05 51.5318 25.925 51.3018 25.835C51.0718 25.745 50.7418 25.635 50.3118 25.505C49.7818 25.355 49.3418 25.21 48.9918 25.07C48.6518 24.92 48.3618 24.705 48.1218 24.425C47.8818 24.135 47.7618 23.76 47.7618 23.3C47.7618 22.6 48.0268 22.04 48.5568 21.62C49.0868 21.2 49.7818 20.99 50.6418 20.99C51.5018 20.99 52.2818 21.215 52.9818 21.665V23C52.5918 22.7 52.2118 22.485 51.8418 22.355C51.4818 22.225 51.1018 22.16 50.7018 22.16C50.2018 22.16 49.8068 22.25 49.5168 22.43C49.2268 22.61 49.0818 22.86 49.0818 23.18C49.0818 23.41 49.1568 23.6 49.3068 23.75C49.4668 23.9 49.6618 24.02 49.8918 24.11C50.1218 24.2 50.4518 24.31 50.8818 24.44C51.4218 24.6 51.8618 24.755 52.2018 24.905C52.5418 25.045 52.8318 25.265 53.0718 25.565C53.3118 25.855 53.4318 26.235 53.4318 26.705C53.4318 27.185 53.3018 27.615 53.0418 27.995C52.7818 28.365 52.4218 28.655 51.9618 28.865C51.5018 29.075 50.9818 29.18 50.4018 29.18ZM62.2818 25.52H56.7318C56.8118 26.29 57.0668 26.905 57.4968 27.365C57.9368 27.815 58.5318 28.04 59.2818 28.04C59.7318 28.04 60.1668 27.95 60.5868 27.77C61.0168 27.58 61.4518 27.305 61.8918 26.945H61.9518V28.265C61.5118 28.585 61.0768 28.82 60.6468 28.97C60.2168 29.11 59.7568 29.18 59.2668 29.18C58.4668 29.18 57.7718 29.005 57.1818 28.655C56.5918 28.305 56.1368 27.82 55.8168 27.2C55.5068 26.57 55.3518 25.85 55.3518 25.04C55.3518 24.27 55.4918 23.58 55.7718 22.97C56.0618 22.35 56.4718 21.865 57.0018 21.515C57.5318 21.165 58.1518 20.99 58.8618 20.99C59.5818 20.99 60.1968 21.17 60.7068 21.53C61.2268 21.88 61.6168 22.365 61.8768 22.985C62.1468 23.605 62.2818 24.305 62.2818 25.085V25.52ZM58.8768 22.085C58.2568 22.085 57.7618 22.31 57.3918 22.76C57.0218 23.21 56.8018 23.79 56.7318 24.5H60.9168C60.8468 23.77 60.6418 23.185 60.3018 22.745C59.9718 22.305 59.4968 22.085 58.8768 22.085ZM71.1 29.18C70.62 29.18 70.145 29.11 69.675 28.97C69.215 28.82 68.78 28.61 68.37 28.34V26.96C69.28 27.66 70.18 28.01 71.07 28.01C71.59 28.01 72.01 27.905 72.33 27.695C72.65 27.475 72.81 27.185 72.81 26.825C72.81 26.575 72.73 26.37 72.57 26.21C72.42 26.05 72.23 25.925 72 25.835C71.77 25.745 71.44 25.635 71.01 25.505C70.48 25.355 70.04 25.21 69.69 25.07C69.35 24.92 69.06 24.705 68.82 24.425C68.58 24.135 68.46 23.76 68.46 23.3C68.46 22.6 68.725 22.04 69.255 21.62C69.785 21.2 70.48 20.99 71.34 20.99C72.2 20.99 72.98 21.215 73.68 21.665V23C73.29 22.7 72.91 22.485 72.54 22.355C72.18 22.225 71.8 22.16 71.4 22.16C70.9 22.16 70.505 22.25 70.215 22.43C69.925 22.61 69.78 22.86 69.78 23.18C69.78 23.41 69.855 23.6 70.005 23.75C70.165 23.9 70.36 24.02 70.59 24.11C70.82 24.2 71.15 24.31 71.58 24.44C72.12 24.6 72.56 24.755 72.9 24.905C73.24 25.045 73.53 25.265 73.77 25.565C74.01 25.855 74.13 26.235 74.13 26.705C74.13 27.185 74 27.615 73.74 27.995C73.48 28.365 73.12 28.655 72.66 28.865C72.2 29.075 71.68 29.18 71.1 29.18ZM81.885 29L81.675 27.905C81.215 28.335 80.77 28.655 80.34 28.865C79.92 29.075 79.425 29.18 78.855 29.18C78.145 29.18 77.59 28.945 77.19 28.475C76.8 28.005 76.605 27.38 76.605 26.6V21.17H77.925V26.42C77.925 26.9 78.035 27.285 78.255 27.575C78.475 27.855 78.79 27.995 79.2 27.995C79.67 27.995 80.08 27.91 80.43 27.74C80.79 27.57 81.165 27.315 81.555 26.975V21.17H82.875V27.26L83.205 29H81.885ZM89.8597 20.99C90.5397 20.99 91.1197 21.17 91.5997 21.53C92.0797 21.89 92.4397 22.38 92.6797 23C92.9297 23.62 93.0547 24.32 93.0547 25.1C93.0547 25.88 92.9097 26.58 92.6197 27.2C92.3397 27.81 91.9297 28.29 91.3897 28.64C90.8597 28.99 90.2297 29.165 89.4997 29.165C89.1297 29.165 88.7847 29.125 88.4647 29.045C88.1447 28.965 87.8047 28.85 87.4447 28.7V29H86.1247V17.69H87.4447V22.01C88.0947 21.33 88.8997 20.99 89.8597 20.99ZM89.3647 27.995C90.0847 27.995 90.6397 27.725 91.0297 27.185C91.4297 26.645 91.6297 25.95 91.6297 25.1C91.6297 24.25 91.4747 23.555 91.1647 23.015C90.8647 22.475 90.3897 22.205 89.7397 22.205C89.2797 22.205 88.8647 22.3 88.4947 22.49C88.1347 22.68 87.7847 22.96 87.4447 23.33V27.695C88.0947 27.895 88.7347 27.995 89.3647 27.995ZM104.374 20.99C105.114 20.99 105.674 21.22 106.054 21.68C106.434 22.13 106.624 22.76 106.624 23.57V29H105.304V23.75C105.304 23.25 105.199 22.865 104.989 22.595C104.779 22.315 104.459 22.175 104.029 22.175C103.589 22.175 103.219 22.255 102.919 22.415C102.619 22.575 102.274 22.835 101.884 23.195C101.894 23.275 101.899 23.4 101.899 23.57V29H100.579V23.75C100.579 23.25 100.474 22.865 100.264 22.595C100.054 22.315 99.7345 22.175 99.3045 22.175C98.8645 22.175 98.4945 22.255 98.1945 22.415C97.8945 22.565 97.5545 22.82 97.1745 23.18V29H95.8545V22.91L95.5245 21.17H96.8445L97.0545 22.25C97.5045 21.8 97.9095 21.48 98.2695 21.29C98.6395 21.09 99.0995 20.99 99.6495 20.99C100.169 20.99 100.599 21.105 100.939 21.335C101.289 21.565 101.544 21.895 101.704 22.325C102.184 21.845 102.609 21.505 102.979 21.305C103.349 21.095 103.814 20.99 104.374 20.99ZM110.396 19.4C110.116 19.4 109.886 19.31 109.706 19.13C109.536 18.95 109.451 18.72 109.451 18.44C109.451 18.16 109.536 17.93 109.706 17.75C109.886 17.57 110.116 17.48 110.396 17.48C110.676 17.48 110.901 17.57 111.071 17.75C111.251 17.93 111.341 18.16 111.341 18.44C111.341 18.72 111.251 18.95 111.071 19.13C110.901 19.31 110.676 19.4 110.396 19.4ZM111.056 21.17V29H109.736V21.17H111.056ZM115.695 21.17H117.855V22.31H115.695V26.795C115.695 27.165 115.775 27.465 115.935 27.695C116.105 27.915 116.35 28.025 116.67 28.025C116.89 28.025 117.085 28.005 117.255 27.965C117.435 27.915 117.635 27.84 117.855 27.74V28.91C117.625 29.02 117.405 29.09 117.195 29.12C116.985 29.16 116.73 29.18 116.43 29.18C115.79 29.18 115.285 28.975 114.915 28.565C114.555 28.155 114.375 27.61 114.375 26.93V22.31H112.875V21.17H114.375V19.07L115.695 18.38V21.17ZM21.375 49L21.165 47.875C20.775 48.305 20.35 48.63 19.89 48.85C19.44 49.07 18.93 49.18 18.36 49.18C17.65 49.18 17.075 48.98 16.635 48.58C16.195 48.17 15.975 47.63 15.975 46.96C15.975 46.09 16.325 45.45 17.025 45.04C17.725 44.63 18.625 44.425 19.725 44.425C20.125 44.425 20.565 44.45 21.045 44.5V43.96C21.045 43.42 20.895 42.99 20.595 42.67C20.305 42.34 19.925 42.175 19.455 42.175C18.895 42.175 18.385 42.25 17.925 42.4C17.475 42.55 17.01 42.785 16.53 43.105V41.83C17 41.52 17.48 41.305 17.97 41.185C18.46 41.055 19.02 40.99 19.65 40.99C20.45 40.99 21.1 41.245 21.6 41.755C22.11 42.265 22.365 42.94 22.365 43.78V47.26L22.695 49H21.375ZM18.63 48.07C19.11 48.07 19.54 47.97 19.92 47.77C20.3 47.57 20.675 47.28 21.045 46.9V45.43H19.665C18.155 45.43 17.4 45.915 17.4 46.885C17.4 47.245 17.515 47.535 17.745 47.755C17.975 47.965 18.27 48.07 18.63 48.07ZM33.1553 40.99C33.8353 40.99 34.4153 41.17 34.8953 41.53C35.3753 41.89 35.7353 42.38 35.9753 43C36.2253 43.62 36.3503 44.32 36.3503 45.1C36.3503 45.88 36.2053 46.58 35.9153 47.2C35.6353 47.81 35.2253 48.29 34.6853 48.64C34.1553 48.99 33.5253 49.165 32.7953 49.165C32.4253 49.165 32.0803 49.125 31.7603 49.045C31.4403 48.965 31.1003 48.85 30.7403 48.7V52.48H29.4203V42.91L29.0903 41.17H30.4103L30.6053 42.175C31.2853 41.385 32.1353 40.99 33.1553 40.99ZM32.6603 47.995C33.3803 47.995 33.9353 47.725 34.3253 47.185C34.7253 46.645 34.9253 45.95 34.9253 45.1C34.9253 44.25 34.7703 43.555 34.4603 43.015C34.1603 42.475 33.6853 42.205 33.0353 42.205C32.5753 42.205 32.1603 42.3 31.7903 42.49C31.4303 42.68 31.0803 42.96 30.7403 43.33V47.695C31.3903 47.895 32.0303 47.995 32.6603 47.995ZM43.185 40.99C43.925 40.99 44.485 41.22 44.865 41.68C45.245 42.13 45.435 42.76 45.435 43.57V49H44.115V43.75C44.115 43.25 44.01 42.865 43.8 42.595C43.59 42.315 43.27 42.175 42.84 42.175C42.35 42.175 41.935 42.255 41.595 42.415C41.265 42.575 40.895 42.835 40.485 43.195V49H39.165V37.69H40.485V42.145C40.925 41.745 41.34 41.455 41.73 41.275C42.13 41.085 42.615 40.99 43.185 40.99ZM51.8947 49.18C50.7547 49.18 49.8647 48.81 49.2247 48.07C48.5847 47.32 48.2647 46.325 48.2647 45.085C48.2647 43.845 48.5847 42.855 49.2247 42.115C49.8647 41.365 50.7547 40.99 51.8947 40.99C53.0347 40.99 53.9247 41.365 54.5647 42.115C55.2047 42.855 55.5247 43.845 55.5247 45.085C55.5247 46.325 55.2047 47.32 54.5647 48.07C53.9247 48.81 53.0347 49.18 51.8947 49.18ZM51.8947 48.04C52.6247 48.04 53.1747 47.77 53.5447 47.23C53.9147 46.69 54.0997 45.975 54.0997 45.085C54.0997 44.195 53.9147 43.48 53.5447 42.94C53.1747 42.4 52.6247 42.13 51.8947 42.13C51.1647 42.13 50.6147 42.4 50.2447 42.94C49.8847 43.48 49.7047 44.195 49.7047 45.085C49.7047 45.975 49.8847 46.69 50.2447 47.23C50.6147 47.77 51.1647 48.04 51.8947 48.04ZM59.8845 41.17H62.0445V42.31H59.8845V46.795C59.8845 47.165 59.9645 47.465 60.1245 47.695C60.2945 47.915 60.5395 48.025 60.8595 48.025C61.0795 48.025 61.2745 48.005 61.4445 47.965C61.6245 47.915 61.8245 47.84 62.0445 47.74V48.91C61.8145 49.02 61.5945 49.09 61.3845 49.12C61.1745 49.16 60.9195 49.18 60.6195 49.18C59.9795 49.18 59.4745 48.975 59.1045 48.565C58.7445 48.155 58.5645 47.61 58.5645 46.93V42.31H57.0645V41.17H58.5645V39.07L59.8845 38.38V41.17ZM67.4953 49.18C66.3553 49.18 65.4653 48.81 64.8253 48.07C64.1853 47.32 63.8653 46.325 63.8653 45.085C63.8653 43.845 64.1853 42.855 64.8253 42.115C65.4653 41.365 66.3553 40.99 67.4953 40.99C68.6353 40.99 69.5253 41.365 70.1653 42.115C70.8053 42.855 71.1253 43.845 71.1253 45.085C71.1253 46.325 70.8053 47.32 70.1653 48.07C69.5253 48.81 68.6353 49.18 67.4953 49.18ZM67.4953 48.04C68.2253 48.04 68.7753 47.77 69.1453 47.23C69.5153 46.69 69.7003 45.975 69.7003 45.085C69.7003 44.195 69.5153 43.48 69.1453 42.94C68.7753 42.4 68.2253 42.13 67.4953 42.13C66.7653 42.13 66.2153 42.4 65.8453 42.94C65.4853 43.48 65.3053 44.195 65.3053 45.085C65.3053 45.975 65.4853 46.69 65.8453 47.23C66.2153 47.77 66.7653 48.04 67.4953 48.04ZM81.2941 49.18C80.1541 49.18 79.2641 48.81 78.6241 48.07C77.9841 47.32 77.6641 46.325 77.6641 45.085C77.6641 43.845 77.9841 42.855 78.6241 42.115C79.2641 41.365 80.1541 40.99 81.2941 40.99C82.4341 40.99 83.3241 41.365 83.9641 42.115C84.6041 42.855 84.9241 43.845 84.9241 45.085C84.9241 46.325 84.6041 47.32 83.9641 48.07C83.3241 48.81 82.4341 49.18 81.2941 49.18ZM81.2941 48.04C82.0241 48.04 82.5741 47.77 82.9441 47.23C83.3141 46.69 83.4991 45.975 83.4991 45.085C83.4991 44.195 83.3141 43.48 82.9441 42.94C82.5741 42.4 82.0241 42.13 81.2941 42.13C80.5641 42.13 80.0141 42.4 79.6441 42.94C79.2841 43.48 79.1041 44.195 79.1041 45.085C79.1041 45.975 79.2841 46.69 79.6441 47.23C80.0141 47.77 80.5641 48.04 81.2941 48.04ZM87.9339 42.31H86.4339V41.17H87.9339V40.27C87.9339 39.4 88.1339 38.725 88.5339 38.245C88.9439 37.755 89.5539 37.51 90.3639 37.51C90.5839 37.51 90.7789 37.53 90.9489 37.57C91.1189 37.61 91.3239 37.675 91.5639 37.765V38.905C91.3639 38.815 91.1989 38.755 91.0689 38.725C90.9389 38.685 90.7939 38.665 90.6339 38.665C90.1539 38.665 89.8039 38.8 89.5839 39.07C89.3639 39.33 89.2539 39.68 89.2539 40.12V41.17H91.4139V42.31H89.2539V49H87.9339V42.31ZM98.8932 41.17H101.053V42.31H98.8932V46.795C98.8932 47.165 98.9732 47.465 99.1332 47.695C99.3032 47.915 99.5482 48.025 99.8682 48.025C100.088 48.025 100.283 48.005 100.453 47.965C100.633 47.915 100.833 47.84 101.053 47.74V48.91C100.823 49.02 100.603 49.09 100.393 49.12C100.183 49.16 99.9282 49.18 99.6282 49.18C98.9882 49.18 98.4832 48.975 98.1132 48.565C97.7532 48.155 97.5732 47.61 97.5732 46.93V42.31H96.0732V41.17H97.5732V39.07L98.8932 38.38V41.17ZM107.389 40.99C108.129 40.99 108.689 41.22 109.069 41.68C109.449 42.13 109.639 42.76 109.639 43.57V49H108.319V43.75C108.319 43.25 108.214 42.865 108.004 42.595C107.794 42.315 107.474 42.175 107.044 42.175C106.554 42.175 106.139 42.255 105.799 42.415C105.469 42.575 105.099 42.835 104.689 43.195V49H103.369V37.69H104.689V42.145C105.129 41.745 105.544 41.455 105.934 41.275C106.334 41.085 106.819 40.99 107.389 40.99ZM119.279 45.52H113.729C113.809 46.29 114.064 46.905 114.494 47.365C114.934 47.815 115.529 48.04 116.279 48.04C116.729 48.04 117.164 47.95 117.584 47.77C118.014 47.58 118.449 47.305 118.889 46.945H118.949V48.265C118.509 48.585 118.074 48.82 117.644 48.97C117.214 49.11 116.754 49.18 116.264 49.18C115.464 49.18 114.769 49.005 114.179 48.655C113.589 48.305 113.134 47.82 112.814 47.2C112.504 46.57 112.349 45.85 112.349 45.04C112.349 44.27 112.489 43.58 112.769 42.97C113.059 42.35 113.469 41.865 113.999 41.515C114.529 41.165 115.149 40.99 115.859 40.99C116.579 40.99 117.194 41.17 117.704 41.53C118.224 41.88 118.614 42.365 118.874 42.985C119.144 43.605 119.279 44.305 119.279 45.085V45.52ZM115.874 42.085C115.254 42.085 114.759 42.31 114.389 42.76C114.019 43.21 113.799 43.79 113.729 44.5H117.914C117.844 43.77 117.639 43.185 117.299 42.745C116.969 42.305 116.494 42.085 115.874 42.085ZM19.5 69.18C18.77 69.18 18.13 69.005 17.58 68.655C17.03 68.305 16.61 67.825 16.32 67.215C16.03 66.595 15.885 65.895 15.885 65.115C15.885 64.325 16.03 63.62 16.32 63C16.61 62.37 17.03 61.88 17.58 61.53C18.13 61.17 18.775 60.99 19.515 60.99C20.035 60.99 20.49 61.045 20.88 61.155C21.27 61.265 21.64 61.465 21.99 61.755V63.03H21.93C21.57 62.73 21.195 62.515 20.805 62.385C20.425 62.255 19.99 62.19 19.5 62.19C18.79 62.19 18.24 62.465 17.85 63.015C17.47 63.565 17.28 64.27 17.28 65.13C17.28 65.96 17.47 66.645 17.85 67.185C18.24 67.715 18.785 67.98 19.485 67.98C20.005 67.98 20.47 67.9 20.88 67.74C21.29 67.57 21.695 67.305 22.095 66.945H22.155V68.22C21.785 68.57 21.385 68.82 20.955 68.97C20.535 69.11 20.05 69.18 19.5 69.18ZM27.9006 69.18C26.7606 69.18 25.8706 68.81 25.2306 68.07C24.5906 67.32 24.2706 66.325 24.2706 65.085C24.2706 63.845 24.5906 62.855 25.2306 62.115C25.8706 61.365 26.7606 60.99 27.9006 60.99C29.0406 60.99 29.9306 61.365 30.5706 62.115C31.2106 62.855 31.5306 63.845 31.5306 65.085C31.5306 66.325 31.2106 67.32 30.5706 68.07C29.9306 68.81 29.0406 69.18 27.9006 69.18ZM27.9006 68.04C28.6306 68.04 29.1806 67.77 29.5506 67.23C29.9206 66.69 30.1056 65.975 30.1056 65.085C30.1056 64.195 29.9206 63.48 29.5506 62.94C29.1806 62.4 28.6306 62.13 27.9006 62.13C27.1706 62.13 26.6206 62.4 26.2506 62.94C25.8906 63.48 25.7106 64.195 25.7106 65.085C25.7106 65.975 25.8906 66.69 26.2506 67.23C26.6206 67.77 27.1706 68.04 27.9006 68.04ZM42.8803 60.99C43.6203 60.99 44.1803 61.22 44.5603 61.68C44.9403 62.13 45.1303 62.76 45.1303 63.57V69H43.8103V63.75C43.8103 63.25 43.7053 62.865 43.4953 62.595C43.2853 62.315 42.9653 62.175 42.5353 62.175C42.0953 62.175 41.7253 62.255 41.4253 62.415C41.1253 62.575 40.7803 62.835 40.3903 63.195C40.4003 63.275 40.4053 63.4 40.4053 63.57V69H39.0853V63.75C39.0853 63.25 38.9803 62.865 38.7703 62.595C38.5603 62.315 38.2403 62.175 37.8103 62.175C37.3703 62.175 37.0003 62.255 36.7003 62.415C36.4003 62.565 36.0603 62.82 35.6803 63.18V69H34.3603V62.91L34.0303 61.17H35.3503L35.5603 62.25C36.0103 61.8 36.4153 61.48 36.7753 61.29C37.1453 61.09 37.6053 60.99 38.1553 60.99C38.6753 60.99 39.1053 61.105 39.4453 61.335C39.7953 61.565 40.0503 61.895 40.2103 62.325C40.6903 61.845 41.1153 61.505 41.4853 61.305C41.8553 61.095 42.3203 60.99 42.8803 60.99ZM52.0518 60.99C52.7318 60.99 53.3118 61.17 53.7918 61.53C54.2718 61.89 54.6318 62.38 54.8718 63C55.1218 63.62 55.2468 64.32 55.2468 65.1C55.2468 65.88 55.1018 66.58 54.8118 67.2C54.5318 67.81 54.1218 68.29 53.5818 68.64C53.0518 68.99 52.4218 69.165 51.6918 69.165C51.3218 69.165 50.9768 69.125 50.6568 69.045C50.3368 68.965 49.9968 68.85 49.6368 68.7V72.48H48.3168V62.91L47.9868 61.17H49.3068L49.5018 62.175C50.1818 61.385 51.0318 60.99 52.0518 60.99ZM51.5568 67.995C52.2768 67.995 52.8318 67.725 53.2218 67.185C53.6218 66.645 53.8218 65.95 53.8218 65.1C53.8218 64.25 53.6668 63.555 53.3568 63.015C53.0568 62.475 52.5818 62.205 51.9318 62.205C51.4718 62.205 51.0568 62.3 50.6868 62.49C50.3268 62.68 49.9768 62.96 49.6368 63.33V67.695C50.2868 67.895 50.9268 67.995 51.5568 67.995ZM57.8365 57.69H59.1565V69H57.8365V57.69ZM68.5806 65.52H63.0306C63.1106 66.29 63.3656 66.905 63.7956 67.365C64.2356 67.815 64.8306 68.04 65.5806 68.04C66.0306 68.04 66.4656 67.95 66.8856 67.77C67.3156 67.58 67.7506 67.305 68.1906 66.945H68.2506V68.265C67.8106 68.585 67.3756 68.82 66.9456 68.97C66.5156 69.11 66.0556 69.18 65.5656 69.18C64.7656 69.18 64.0706 69.005 63.4806 68.655C62.8906 68.305 62.4356 67.82 62.1156 67.2C61.8056 66.57 61.6506 65.85 61.6506 65.04C61.6506 64.27 61.7906 63.58 62.0706 62.97C62.3606 62.35 62.7706 61.865 63.3006 61.515C63.8306 61.165 64.4506 60.99 65.1606 60.99C65.8806 60.99 66.4956 61.17 67.0056 61.53C67.5256 61.88 67.9156 62.365 68.1756 62.985C68.4456 63.605 68.5806 64.305 68.5806 65.085V65.52ZM65.1756 62.085C64.5556 62.085 64.0606 62.31 63.6906 62.76C63.3206 63.21 63.1006 63.79 63.0306 64.5H67.2156C67.1456 63.77 66.9406 63.185 66.6006 62.745C66.2706 62.305 65.7956 62.085 65.1756 62.085ZM72.7897 61.17H74.9497V62.31H72.7897V66.795C72.7897 67.165 72.8697 67.465 73.0297 67.695C73.1997 67.915 73.4447 68.025 73.7647 68.025C73.9847 68.025 74.1797 68.005 74.3497 67.965C74.5297 67.915 74.7297 67.84 74.9497 67.74V68.91C74.7197 69.02 74.4997 69.09 74.2897 69.12C74.0797 69.16 73.8247 69.18 73.5247 69.18C72.8847 69.18 72.3797 68.975 72.0097 68.565C71.6497 68.155 71.4697 67.61 71.4697 66.93V62.31H69.9697V61.17H71.4697V59.07L72.7897 58.38V61.17ZM83.5806 65.52H78.0306C78.1106 66.29 78.3656 66.905 78.7956 67.365C79.2356 67.815 79.8306 68.04 80.5806 68.04C81.0306 68.04 81.4656 67.95 81.8856 67.77C82.3156 67.58 82.7506 67.305 83.1906 66.945H83.2506V68.265C82.8106 68.585 82.3756 68.82 81.9456 68.97C81.5156 69.11 81.0556 69.18 80.5656 69.18C79.7656 69.18 79.0706 69.005 78.4806 68.655C77.8906 68.305 77.4356 67.82 77.1156 67.2C76.8056 66.57 76.6506 65.85 76.6506 65.04C76.6506 64.27 76.7906 63.58 77.0706 62.97C77.3606 62.35 77.7706 61.865 78.3006 61.515C78.8306 61.165 79.4506 60.99 80.1606 60.99C80.8806 60.99 81.4956 61.17 82.0056 61.53C82.5256 61.88 82.9156 62.365 83.1756 62.985C83.4456 63.605 83.5806 64.305 83.5806 65.085V65.52ZM80.1756 62.085C79.5556 62.085 79.0606 62.31 78.6906 62.76C78.3206 63.21 78.1006 63.79 78.0306 64.5H82.2156C82.1456 63.77 81.9406 63.185 81.6006 62.745C81.2706 62.305 80.7956 62.085 80.1756 62.085ZM91.6297 69L91.4347 67.965C91.0747 68.365 90.6697 68.665 90.2197 68.865C89.7697 69.065 89.2647 69.165 88.7047 69.165C87.7347 69.165 86.9897 68.79 86.4697 68.04C85.9497 67.29 85.6897 66.33 85.6897 65.16C85.6897 64.36 85.8297 63.645 86.1097 63.015C86.3997 62.385 86.8097 61.89 87.3397 61.53C87.8797 61.17 88.5197 60.99 89.2597 60.99C89.6197 60.99 89.9597 61.035 90.2797 61.125C90.5997 61.205 90.9397 61.325 91.2997 61.485V57.69H92.6197V67.26L92.9497 69H91.6297ZM88.9147 67.95C89.3947 67.95 89.8197 67.855 90.1897 67.665C90.5697 67.465 90.9397 67.175 91.2997 66.795V62.49C90.6597 62.27 90.0247 62.16 89.3947 62.16C88.6647 62.16 88.0997 62.44 87.6997 63C87.3097 63.55 87.1147 64.26 87.1147 65.13C87.1147 65.96 87.2547 66.64 87.5347 67.17C87.8247 67.69 88.2847 67.95 88.9147 67.95ZM18.195 81.17H20.355V82.31H18.195V86.795C18.195 87.165 18.275 87.465 18.435 87.695C18.605 87.915 18.85 88.025 19.17 88.025C19.39 88.025 19.585 88.005 19.755 87.965C19.935 87.915 20.135 87.84 20.355 87.74V88.91C20.125 89.02 19.905 89.09 19.695 89.12C19.485 89.16 19.23 89.18 18.93 89.18C18.29 89.18 17.785 88.975 17.415 88.565C17.055 88.155 16.875 87.61 16.875 86.93V82.31H15.375V81.17H16.875V79.07L18.195 78.38V81.17ZM27.3809 89L27.1709 87.875C26.7809 88.305 26.3559 88.63 25.8959 88.85C25.4459 89.07 24.9359 89.18 24.3659 89.18C23.6559 89.18 23.0809 88.98 22.6409 88.58C22.2009 88.17 21.9809 87.63 21.9809 86.96C21.9809 86.09 22.3309 85.45 23.0309 85.04C23.7309 84.63 24.6309 84.425 25.7309 84.425C26.1309 84.425 26.5709 84.45 27.0509 84.5V83.96C27.0509 83.42 26.9009 82.99 26.6009 82.67C26.3109 82.34 25.9309 82.175 25.4609 82.175C24.9009 82.175 24.3909 82.25 23.9309 82.4C23.4809 82.55 23.0159 82.785 22.5359 83.105V81.83C23.0059 81.52 23.4859 81.305 23.9759 81.185C24.4659 81.055 25.0259 80.99 25.6559 80.99C26.4559 80.99 27.1059 81.245 27.6059 81.755C28.1159 82.265 28.3709 82.94 28.3709 83.78V87.26L28.7009 89H27.3809ZM24.6359 88.07C25.1159 88.07 25.5459 87.97 25.9259 87.77C26.3059 87.57 26.6809 87.28 27.0509 86.9V85.43H25.6709C24.1609 85.43 23.4059 85.915 23.4059 86.885C23.4059 87.245 23.5209 87.535 23.7509 87.755C23.9809 87.965 24.2759 88.07 24.6359 88.07ZM33.307 89.18C32.827 89.18 32.352 89.11 31.882 88.97C31.422 88.82 30.987 88.61 30.577 88.34V86.96C31.487 87.66 32.387 88.01 33.277 88.01C33.797 88.01 34.217 87.905 34.537 87.695C34.857 87.475 35.017 87.185 35.017 86.825C35.017 86.575 34.937 86.37 34.777 86.21C34.627 86.05 34.437 85.925 34.207 85.835C33.977 85.745 33.647 85.635 33.217 85.505C32.687 85.355 32.247 85.21 31.897 85.07C31.557 84.92 31.267 84.705 31.027 84.425C30.787 84.135 30.667 83.76 30.667 83.3C30.667 82.6 30.932 82.04 31.462 81.62C31.992 81.2 32.687 80.99 33.547 80.99C34.407 80.99 35.187 81.215 35.887 81.665V83C35.497 82.7 35.117 82.485 34.747 82.355C34.387 82.225 34.007 82.16 33.607 82.16C33.107 82.16 32.712 82.25 32.422 82.43C32.132 82.61 31.987 82.86 31.987 83.18C31.987 83.41 32.062 83.6 32.212 83.75C32.372 83.9 32.567 84.02 32.797 84.11C33.027 84.2 33.357 84.31 33.787 84.44C34.327 84.6 34.767 84.755 35.107 84.905C35.447 85.045 35.737 85.265 35.977 85.565C36.217 85.855 36.337 86.235 36.337 86.705C36.337 87.185 36.207 87.615 35.947 87.995C35.687 88.365 35.327 88.655 34.867 88.865C34.407 89.075 33.887 89.18 33.307 89.18ZM41.422 85.34L40.192 86.72V89H38.872V77.69H40.192V84.995L43.612 81.17H45.172L42.307 84.365L45.352 89H43.732L41.422 85.34ZM47.8582 89.18C47.5682 89.18 47.3232 89.085 47.1232 88.895C46.9332 88.705 46.8382 88.455 46.8382 88.145C46.8382 87.835 46.9332 87.585 47.1232 87.395C47.3232 87.205 47.5682 87.11 47.8582 87.11C48.1482 87.11 48.3882 87.205 48.5782 87.395C48.7782 87.585 48.8782 87.835 48.8782 88.145C48.8782 88.455 48.7782 88.705 48.5782 88.895C48.3882 89.085 48.1482 89.18 47.8582 89.18Z" fill="#30445F"/>
</svg>
