<svg width="36" height="36" viewBox="0 0 36 36" fill="none" xmlns="http://www.w3.org/2000/svg">
<path fill-rule="evenodd" clip-rule="evenodd" d="M18 3.6C15.4814 3.59954 13.0067 4.25968 10.8229 5.51453C8.63913 6.76938 6.82267 8.57505 5.55484 10.7513C4.28701 12.9276 3.61215 15.3983 3.59762 17.9169C3.58308 20.4355 4.22938 22.9138 5.47201 25.1046C6.31191 24.013 7.39159 23.1292 8.62757 22.5215C9.86355 21.9139 11.2227 21.5985 12.6 21.6H23.4C24.7773 21.5985 26.1365 21.9139 27.3724 22.5215C28.6084 23.1292 29.6881 24.013 30.528 25.1046C31.7706 22.9138 32.4169 20.4355 32.4024 17.9169C32.3879 15.3983 31.713 12.9276 30.4452 10.7513C29.1773 8.57505 27.3609 6.76938 25.1771 5.51453C22.9933 4.25968 20.5186 3.59954 18 3.6ZM32.2974 28.9368C34.704 25.7993 36.0058 21.9542 36 18C36 8.05859 27.9414 0 18 0C8.05861 0 2.02558e-05 8.05859 2.02558e-05 18C-0.00592233 21.9542 1.29585 25.7994 3.70262 28.9368L3.69362 28.9692L4.33262 29.7126C6.02081 31.6863 8.11691 33.2705 10.4764 34.3559C12.836 35.4414 15.4028 36.0023 18 36C21.6492 36.0067 25.2133 34.8982 28.215 32.823C29.4947 31.9388 30.655 30.8934 31.6674 29.7126L32.3064 28.9692L32.2974 28.9368ZM18 7.19999C16.5678 7.19999 15.1943 7.76892 14.1816 8.78162C13.1689 9.79431 12.6 11.1678 12.6 12.6C12.6 14.0322 13.1689 15.4057 14.1816 16.4184C15.1943 17.4311 16.5678 18 18 18C19.4322 18 20.8057 17.4311 21.8184 16.4184C22.8311 15.4057 23.4 14.0322 23.4 12.6C23.4 11.1678 22.8311 9.79431 21.8184 8.78162C20.8057 7.76892 19.4322 7.19999 18 7.19999Z" fill="#30445F"/>
</svg>
