<svg width="18" height="18" viewBox="0 0 18 18" fill="none" xmlns="http://www.w3.org/2000/svg">
<path d="M8.16663 11.7983H8.12413C7.91438 11.7983 7.71323 11.715 7.56492 11.5667C7.41661 11.4184 7.33329 11.2172 7.33329 11.0075C7.33329 10.7865 7.24549 10.5745 7.08921 10.4182C6.93293 10.262 6.72097 10.1742 6.49996 10.1742C6.27895 10.1742 6.06698 10.262 5.9107 10.4182C5.75442 10.5745 5.66663 10.7865 5.66663 11.0075C5.66663 11.6593 5.92554 12.2843 6.38641 12.7452C6.84728 13.2061 7.47236 13.465 8.12413 13.465H8.16663V14.2983C8.16663 14.5193 8.25442 14.7313 8.4107 14.8876C8.56698 15.0439 8.77894 15.1317 8.99996 15.1317C9.22097 15.1317 9.43293 15.0439 9.58921 14.8876C9.74549 14.7313 9.83329 14.5193 9.83329 14.2983V13.465C10.4963 13.465 11.1322 13.2016 11.6011 12.7328C12.0699 12.2639 12.3333 11.628 12.3333 10.965C12.3333 10.302 12.0699 9.66607 11.6011 9.19723C11.1322 8.72839 10.4963 8.465 9.83329 8.465V6.79833H9.85163C10.3016 6.79833 10.6666 7.16333 10.6666 7.61333C10.6666 7.83434 10.7544 8.04631 10.9107 8.20259C11.067 8.35887 11.2789 8.44666 11.5 8.44666C11.721 8.44666 11.9329 8.35887 12.0892 8.20259C12.2455 8.04631 12.3333 7.83434 12.3333 7.61333C12.3333 6.95515 12.0718 6.32393 11.6064 5.85853C11.141 5.39312 10.5098 5.13166 9.85163 5.13166H9.83329V4.29833C9.83329 4.07732 9.74549 3.86535 9.58921 3.70907C9.43293 3.55279 9.22097 3.465 8.99996 3.465C8.77894 3.465 8.56698 3.55279 8.4107 3.70907C8.25442 3.86535 8.16663 4.07732 8.16663 4.29833V5.13166C7.83832 5.13166 7.51323 5.19633 7.20992 5.32196C6.9066 5.4476 6.63101 5.63175 6.39886 5.8639C6.16671 6.09604 5.98256 6.37164 5.85693 6.67495C5.73129 6.97827 5.66663 7.30336 5.66663 7.63166C5.66663 7.95997 5.73129 8.28506 5.85693 8.58837C5.98256 8.89169 6.16671 9.16728 6.39886 9.39943C6.63101 9.63158 6.9066 9.81573 7.20992 9.94136C7.51323 10.067 7.83832 10.1317 8.16663 10.1317V11.7983ZM9.83329 11.7983V10.1317C10.0543 10.1317 10.2663 10.2195 10.4225 10.3757C10.5788 10.532 10.6666 10.744 10.6666 10.965C10.6666 11.186 10.5788 11.398 10.4225 11.5543C10.2663 11.7105 10.0543 11.7983 9.83329 11.7983ZM8.16663 6.79833V8.465C7.94561 8.465 7.73365 8.3772 7.57737 8.22092C7.42109 8.06464 7.33329 7.85268 7.33329 7.63166C7.33329 7.41065 7.42109 7.19869 7.57737 7.04241C7.73365 6.88613 7.94561 6.79833 8.16663 6.79833ZM8.99996 17.6317C4.39746 17.6317 0.666626 13.9008 0.666626 9.29833C0.666626 4.69583 4.39746 0.964996 8.99996 0.964996C13.6025 0.964996 17.3333 4.69583 17.3333 9.29833C17.3333 13.9008 13.6025 17.6317 8.99996 17.6317Z" fill="#F2B83D"/>
</svg>
